<svg width="102" height="28" viewBox="0 0 102 28" fill="none" xmlns="http://www.w3.org/2000/svg">
<path d="M14.7498 7.87549L3.37476 13.563V19.2505M14.7498 13.563L9.06225 16.4067" stroke="#E17153" stroke-width="1.75" stroke-linejoin="round"/>
<path d="M14.7498 19.6879L3.37476 14.0004V19.6879L14.7498 25.3754L14.7498 19.6879Z" stroke="#E17153" stroke-width="1.75" stroke-linejoin="round"/>
<path d="M26.1246 14.0004V8.31286L14.7496 2.62537V8.31286L20.4371 11.1566" stroke="#E17153" stroke-width="1.75" stroke-linejoin="round"/>
<path d="M14.7498 13.563L26.1248 7.87549V13.563L14.7498 19.2505V13.563Z" stroke="#E17153" stroke-width="1.75" stroke-linejoin="round"/>
<path d="M33.9996 19.0338V5.97948H43.7624V8.17498H36.7214V11.4188H42.2635V13.5154H36.7214V16.8383H44.0385V19.0338H33.9996Z" fill="#E17153"/>
<path d="M44.7956 23.1875V9.14417H47.2215L47.399 12.2891L47.0637 11.9331C47.182 11.3529 47.399 10.8386 47.7145 10.3903C48.0432 9.94194 48.4574 9.5925 48.9571 9.34196C49.4567 9.07824 50.0155 8.94638 50.6335 8.94638C51.4356 8.94638 52.1522 9.15076 52.7833 9.55954C53.4144 9.96831 53.9075 10.5551 54.2625 11.3199C54.6306 12.0715 54.8147 12.988 54.8147 14.0692C54.8147 15.1505 54.6306 16.0801 54.2625 16.8581C53.8943 17.6229 53.3881 18.2097 52.7438 18.6185C52.1127 19.0272 51.3895 19.2316 50.5743 19.2316C49.7065 19.2316 48.9834 18.9877 48.4048 18.4998C47.8394 18.0119 47.4516 17.3987 47.2412 16.6603L47.4976 16.2449V23.1875H44.7956ZM49.7854 17.1548C50.5086 17.1548 51.074 16.8977 51.4816 16.3834C51.9023 15.856 52.1127 15.0912 52.1127 14.089C52.1127 13.0868 51.9089 12.3286 51.5013 11.8144C51.1068 11.2869 50.548 11.0232 49.8249 11.0232C49.3647 11.0232 48.9571 11.1485 48.6021 11.399C48.2602 11.6364 47.9906 11.9858 47.7934 12.4473C47.5962 12.8956 47.4976 13.4429 47.4976 14.089C47.4976 14.7088 47.5896 15.256 47.7737 15.7307C47.9578 16.1922 48.2207 16.5482 48.5626 16.7988C48.9176 17.0361 49.3252 17.1548 49.7854 17.1548Z" fill="#E17153"/>
<path d="M57.1129 7.72006C56.5475 7.72006 56.1268 7.60138 55.8507 7.36403C55.5745 7.11349 55.4365 6.75087 55.4365 6.27617C55.4365 5.78828 55.5745 5.42566 55.8507 5.18831C56.1268 4.93777 56.5475 4.8125 57.1129 4.8125C57.6783 4.8125 58.0991 4.93777 58.3752 5.18831C58.6513 5.42566 58.7893 5.78828 58.7893 6.27617C58.7893 6.75087 58.6513 7.11349 58.3752 7.36403C58.0991 7.60138 57.6783 7.72006 57.1129 7.72006ZM58.4541 9.14417V19.0338H55.752V9.14417H58.4541Z" fill="#E17153"/>
<path d="M64.3866 8.94638C65.2676 8.94638 66.0105 9.07824 66.6153 9.34196C67.2333 9.5925 67.7264 9.94194 68.0945 10.3903C68.4758 10.8254 68.7454 11.3133 68.9031 11.8539L66.3786 12.7638C66.2471 12.1704 66.0236 11.7221 65.7081 11.4188C65.3925 11.1155 64.9652 10.9639 64.4261 10.9639C63.9264 10.9639 63.4991 11.0825 63.1441 11.3199C62.7891 11.5441 62.5195 11.8935 62.3355 12.3682C62.1514 12.8297 62.0593 13.4099 62.0593 14.1088C62.0593 14.8076 62.1514 15.3878 62.3355 15.8494C62.5327 16.3109 62.8088 16.6537 63.1638 16.8779C63.532 17.1021 63.9593 17.2141 64.4458 17.2141C64.8403 17.2141 65.1755 17.1482 65.4517 17.0163C65.7278 16.8713 65.9513 16.6669 66.1222 16.4032C66.3063 16.1395 66.4312 15.823 66.497 15.4538L68.9426 16.2449C68.798 16.8383 68.5284 17.3592 68.134 17.8075C67.7395 18.2558 67.2333 18.6053 66.6153 18.8558C65.9973 19.1064 65.2807 19.2316 64.4655 19.2316C63.4531 19.2316 62.559 19.0272 61.7832 18.6185C61.0075 18.2097 60.4092 17.6229 59.9885 16.8581C59.5677 16.0933 59.3573 15.1703 59.3573 14.089C59.3573 13.0077 59.5677 12.0847 59.9885 11.3199C60.4092 10.5551 61.0009 9.96831 61.7635 9.55954C62.5261 9.15076 63.4005 8.94638 64.3866 8.94638Z" fill="#E17153"/>
<path d="M74.9388 5.97948C76.9768 5.97948 78.5546 6.54649 79.6723 7.6805C80.7899 8.80133 81.3487 10.41 81.3487 12.5067C81.3487 14.5901 80.7899 16.1988 79.6723 17.3328C78.5546 18.4668 76.9768 19.0338 74.9388 19.0338H69.9095V5.97948H74.9388ZM74.8007 16.8581C76.0367 16.8581 76.9637 16.4889 77.5816 15.7505C78.2128 14.9988 78.5283 13.9176 78.5283 12.5067C78.5283 11.0957 78.2128 10.0211 77.5816 9.28263C76.9637 8.53101 76.0367 8.15521 74.8007 8.15521H72.6312V16.8581H74.8007Z" fill="#E17153"/>
<path d="M86.976 19.2316C85.9373 19.2316 85.03 19.0272 84.2543 18.6185C83.4917 18.2097 82.9 17.6229 82.4792 16.8581C82.0585 16.0933 81.8481 15.1703 81.8481 14.089C81.8481 13.0077 82.0585 12.0847 82.4792 11.3199C82.9 10.5551 83.4851 9.96831 84.2346 9.55954C84.9972 9.15076 85.865 8.94638 86.838 8.94638C87.8373 8.94638 88.6853 9.15076 89.3822 9.55954C90.0791 9.95512 90.6116 10.5024 90.9797 11.2012C91.3479 11.8869 91.532 12.6715 91.532 13.555C91.532 13.8187 91.5254 14.0692 91.5123 14.3066C91.4991 14.5439 91.4794 14.7549 91.4531 14.9395H83.5837V13.0605H90.2697L88.968 13.5352C88.968 12.7044 88.7774 12.0649 88.3961 11.6166C88.0279 11.1683 87.502 10.9441 86.8182 10.9441C86.3186 10.9441 85.8847 11.0628 85.5165 11.3001C85.1615 11.5375 84.892 11.8935 84.7079 12.3682C84.5238 12.8297 84.4318 13.4165 84.4318 14.1286C84.4318 14.8274 84.5304 15.4076 84.7276 15.8691C84.938 16.3175 85.2273 16.6537 85.5954 16.8779C85.9767 17.1021 86.4304 17.2141 86.9563 17.2141C87.5348 17.2141 88.0016 17.1021 88.3566 16.8779C88.7116 16.6537 88.9878 16.3438 89.185 15.9483L91.3348 16.779C91.1244 17.2933 90.8022 17.735 90.3683 18.1042C89.9476 18.4734 89.4414 18.7569 88.8497 18.9547C88.2712 19.1393 87.6466 19.2316 86.976 19.2316Z" fill="#E17153"/>
<path d="M98.574 9.14417H101.375L97.6273 19.0338H94.5111L90.7637 9.14417H93.663L96.0889 16.957L98.574 9.14417Z" fill="#E17153"/>
</svg>
