<svg width="122" height="28" viewBox="0 0 122 28" fill="none" xmlns="http://www.w3.org/2000/svg">
<g clip-path="url(#clip0_4_3113)">
<path d="M22.3957 21.5713C23.5233 22.7055 23.5153 24.5471 22.3779 25.6846L21.5473 26.5152C20.4098 27.6526 18.5736 27.6553 17.4459 26.5211L14.5524 23.6106L19.5021 18.6609L22.3957 21.5713Z" fill="#E17153"/>
<path d="M2.87278 20.7289C1.75276 21.8662 1.75907 23.6967 2.8869 24.8246L3.71322 25.6509C4.84863 26.7863 6.68883 26.7786 7.81638 25.6336L13.1398 20.2283L8.21543 15.3039L2.87278 20.7289Z" fill="#E17153"/>
<path fill-rule="evenodd" clip-rule="evenodd" d="M27.1764 0.835387C26.0718 -0.277798 24.2811 -0.278559 23.1755 0.833688L12.7622 11.3101L7.1612 5.66559C6.27575 4.77327 4.84021 4.77327 3.95475 5.66559L2.35149 7.28122C1.46611 8.17355 1.46611 9.62022 2.35149 10.5125L12.7582 21L14.6911 19.0521C14.719 19.0261 14.7465 18.9996 14.7736 18.9723L27.9818 5.68407C29.0887 4.5705 29.0894 2.76328 27.9835 1.64877L27.1764 0.835387Z" fill="#E17153"/>
</g>
<path d="M46.2878 20.8221H37.018V14.8461H45.2936V12.3077H37.018V6.91346H46.0997V4.375H34.0624V23.3606H46.2878V20.8221Z" fill="#E17153"/>
<path d="M49.337 23.3606L53.0987 17.7812L56.9141 23.3606H60.0309L55.0332 16.274L59.7085 9.34615H56.7797L53.2599 14.6346L49.74 9.34615H46.5964L51.3253 16.1947L46.2739 23.3606H49.337Z" fill="#E17153"/>
<path d="M68.0561 23.3606C74.021 23.3606 77.9977 19.2885 77.9977 13.762C77.9977 8.23558 74.1554 4.375 68.0561 4.375H60.5328V23.3606H68.0561ZM65.611 8.68509H67.7606C71.0654 8.68509 72.7851 10.4038 72.7851 13.762C72.7851 17.3317 71.1192 19.0505 67.7606 19.0505H65.611V8.68509Z" fill="#E17153"/>
<path d="M85.2132 23.625C89.4854 23.625 92.7634 20.3197 92.7634 16.2476C92.7634 12.1755 89.4854 8.87019 85.2132 8.87019C80.9411 8.87019 77.6631 12.1755 77.6631 16.2476C77.6631 20.3197 80.9411 23.625 85.2132 23.625ZM85.2132 19.5793C83.7892 19.5793 82.4457 18.4687 82.4457 16.2476C82.4457 14.0264 83.7892 12.9423 85.2132 12.9423C86.6373 12.9423 87.9808 14.0264 87.9808 16.2476C87.9808 18.4687 86.6373 19.5793 85.2132 19.5793Z" fill="#E17153"/>
<path d="M97.7865 15.8774C97.7865 13.7356 98.8075 12.9423 99.936 12.9423C101.333 12.9423 101.978 13.9207 101.978 15.7187V23.3606H106.573V14.2115C106.573 10.7476 104.557 8.87019 101.709 8.87019C99.8823 8.87019 98.5388 9.61057 97.4103 10.8534V9.13461H93.1919V23.3606H97.7865V15.8774Z" fill="#E17153"/>
<path d="M114.31 23.5985C117.911 23.5985 120.463 21.774 121.35 18.5216H116.755C116.352 19.5529 115.492 20.0817 114.203 20.0817C112.725 20.0817 111.865 19.1827 111.623 17.3846H121.43C122.263 12.7043 119.066 8.87019 114.283 8.87019C109.984 8.87019 106.867 11.9639 106.867 16.2211C106.867 20.637 109.85 23.5985 114.31 23.5985ZM114.176 12.2019C115.546 12.2019 116.46 13.1274 116.513 14.5553H111.677C111.999 12.9687 112.805 12.2019 114.176 12.2019Z" fill="#E17153"/>
<defs>
<clipPath id="clip0_4_3113">
<rect width="27.9999" height="28" fill="white" transform="translate(0.812454)"/>
</clipPath>
</defs>
</svg>
