<svg width="124" height="28" viewBox="0 0 124 28" fill="none" xmlns="http://www.w3.org/2000/svg">
<path d="M11.2256 5.25012L2.62469 10.1096V14.3062L11.2256 9.44672H16.6247V5.25012H11.2256Z" fill="#E17153"/>
<path d="M11.2256 19.4285L2.62469 14.569V18.7656L11.2256 23.6251V19.4285Z" fill="#E17153"/>
<path d="M18.5238 23.6246L27.1247 18.7651L27.1247 14.5685L18.5238 19.428H13.1247L13.1247 23.6246H18.5238Z" fill="#E17153"/>
<path d="M18.5238 9.44624L27.1247 14.3057L27.1247 10.1091L18.5238 5.24964L18.5238 9.44624Z" fill="#E17153"/>
<path d="M38.2779 21C37.3157 21 36.4204 20.824 35.5922 20.472C34.7761 20.1201 34.0575 19.6346 33.4363 19.0156C32.8273 18.3845 32.3522 17.6441 32.0112 16.7945C31.6702 15.9449 31.4996 15.0104 31.4996 13.9909C31.4996 12.9835 31.6641 12.055 31.9929 11.2055C32.334 10.3437 32.809 9.60338 33.418 8.98439C34.027 8.35327 34.7396 7.86779 35.5556 7.52796C36.3717 7.17599 37.267 7 38.2414 7C39.2036 7 40.0623 7.16385 40.8175 7.49155C41.5848 7.81925 42.2304 8.25011 42.7541 8.78413C43.2779 9.30602 43.6555 9.87646 43.8869 10.4954L41.9685 11.4239C41.6884 10.6836 41.2255 10.0889 40.58 9.63979C39.9344 9.17859 39.1549 8.94798 38.2414 8.94798C37.34 8.94798 36.5422 9.16038 35.848 9.58517C35.1537 10.01 34.6117 10.5986 34.2219 11.3511C33.8443 12.1036 33.6555 12.9835 33.6555 13.9909C33.6555 14.9983 33.8504 15.8843 34.2402 16.6489C34.6421 17.4014 35.1902 17.99 35.8845 18.4148C36.5788 18.8275 37.3766 19.0338 38.2779 19.0338C39.0331 19.0338 39.7213 18.8821 40.3424 18.5787C40.9758 18.2631 41.4813 17.8262 41.8589 17.2679C42.2365 16.6974 42.4253 16.036 42.4253 15.2835V14.355L43.3936 15.2289H38.2414V13.4083H44.5629V14.6827C44.5629 15.6779 44.3924 16.57 44.0513 17.3589C43.7103 18.1357 43.2474 18.7971 42.6628 19.3433C42.0781 19.8895 41.4082 20.3021 40.653 20.5813C39.8979 20.8604 39.1062 21 38.2779 21Z" fill="#E17153"/>
<path d="M45.4212 20.7815V7H47.4857V20.7815H45.4212Z" fill="#E17153"/>
<path d="M53.5262 21C52.5761 21 51.7052 20.7755 50.9135 20.3264C50.134 19.8773 49.5128 19.2644 49.0499 18.4876C48.5871 17.7109 48.3557 16.8309 48.3557 15.8478C48.3557 14.8526 48.5871 13.9727 49.0499 13.2081C49.5128 12.4313 50.134 11.8244 50.9135 11.3875C51.693 10.9384 52.5639 10.7139 53.5262 10.7139C54.5006 10.7139 55.3715 10.9384 56.1388 11.3875C56.9183 11.8244 57.5334 12.4313 57.9841 13.2081C58.447 13.9727 58.6784 14.8526 58.6784 15.8478C58.6784 16.8431 58.447 17.7291 57.9841 18.5058C57.5213 19.2826 56.9001 19.8955 56.1205 20.3446C55.341 20.7815 54.4762 21 53.5262 21ZM53.5262 19.0884C54.1108 19.0884 54.6285 18.9488 55.0791 18.6697C55.5298 18.3905 55.883 18.0082 56.1388 17.5227C56.4068 17.0251 56.5408 16.4668 56.5408 15.8478C56.5408 15.2289 56.4068 14.6766 56.1388 14.1912C55.883 13.7057 55.5298 13.3234 55.0791 13.0442C54.6285 12.7651 54.1108 12.6255 53.5262 12.6255C52.9537 12.6255 52.436 12.7651 51.9732 13.0442C51.5225 13.3234 51.1632 13.7057 50.8952 14.1912C50.6395 14.6766 50.5116 15.2289 50.5116 15.8478C50.5116 16.4668 50.6395 17.0251 50.8952 17.5227C51.1632 18.0082 51.5225 18.3905 51.9732 18.6697C52.436 18.9488 52.9537 19.0884 53.5262 19.0884Z" fill="#E17153"/>
<path d="M64.8322 21C64.0648 21 63.3645 20.8422 62.7311 20.5266C62.1099 20.2111 61.6288 19.756 61.2878 19.1612L61.5253 18.7789V20.7815H59.5521V7H61.6166V12.9714L61.2878 12.498C61.6532 11.9397 62.1404 11.5028 62.7494 11.1873C63.3584 10.8717 64.0527 10.7139 64.8322 10.7139C65.7701 10.7139 66.6105 10.9384 67.3535 11.3875C68.1087 11.8366 68.6994 12.4495 69.1257 13.2263C69.5642 14.003 69.7834 14.8769 69.7834 15.8478C69.7834 16.8188 69.5642 17.6927 69.1257 18.4694C68.6994 19.2462 68.1147 19.8652 67.3718 20.3264C66.6288 20.7755 65.7822 21 64.8322 21ZM64.6312 19.0884C65.2159 19.0884 65.7335 18.9488 66.1842 18.6697C66.6349 18.3905 66.9881 18.0082 67.2439 17.5227C67.5118 17.0251 67.6458 16.4668 67.6458 15.8478C67.6458 15.2289 67.5118 14.6766 67.2439 14.1912C66.9881 13.7057 66.6349 13.3234 66.1842 13.0442C65.7335 12.7651 65.2159 12.6255 64.6312 12.6255C64.0587 12.6255 63.5411 12.7651 63.0782 13.0442C62.6276 13.3234 62.2683 13.7057 62.0003 14.1912C61.7445 14.6766 61.6166 15.2289 61.6166 15.8478C61.6166 16.4668 61.7445 17.0251 62.0003 17.5227C62.2683 18.0082 62.6276 18.3905 63.0782 18.6697C63.5411 18.9488 64.0587 19.0884 64.6312 19.0884Z" fill="#E17153"/>
<path d="M73.6096 21C72.9397 21 72.349 20.8847 71.8374 20.6541C71.338 20.4113 70.9482 20.0837 70.6681 19.671C70.388 19.2462 70.2479 18.7486 70.2479 18.1781C70.2479 17.6441 70.3636 17.1647 70.595 16.7399C70.8386 16.3151 71.2101 15.9571 71.7095 15.6658C72.2089 15.3745 72.8362 15.1682 73.5914 15.0468L77.0262 14.4824V16.1027L73.9933 16.6307C73.4452 16.7278 73.0432 16.9038 72.7875 17.1586C72.5317 17.4014 72.4038 17.7169 72.4038 18.1053C72.4038 18.4816 72.5439 18.7911 72.824 19.0338C73.1163 19.2644 73.4878 19.3797 73.9385 19.3797C74.4988 19.3797 74.986 19.2583 75.4001 19.0156C75.8264 18.7729 76.1553 18.4512 76.3867 18.0507C76.6181 17.6381 76.7338 17.1829 76.7338 16.6853V14.1547C76.7338 13.6693 76.5511 13.2748 76.1857 12.9714C75.8325 12.6558 75.3575 12.498 74.7607 12.498C74.2125 12.498 73.7314 12.6437 73.3173 12.935C72.9154 13.2141 72.6169 13.5782 72.4221 14.0273L70.7047 13.1716C70.8874 12.6862 71.1858 12.2614 71.5999 11.8973C72.014 11.521 72.4951 11.2297 73.0432 11.0234C73.6035 10.8171 74.1943 10.7139 74.8155 10.7139C75.595 10.7139 76.2832 10.8596 76.88 11.1508C77.489 11.4421 77.958 11.8487 78.2868 12.3706C78.6279 12.8804 78.7984 13.4751 78.7984 14.1547V20.7815H76.8252V18.9974L77.2454 19.052C77.014 19.4525 76.7156 19.7984 76.3502 20.0897C75.9969 20.381 75.5889 20.6055 75.1261 20.7633C74.6754 20.9211 74.1699 21 73.6096 21Z" fill="#E17153"/>
<path d="M80.0704 20.7815V7H82.135V20.7815H80.0704Z" fill="#E17153"/>
<path d="M88.1024 21C87.1158 21 86.2388 20.7755 85.4715 20.3264C84.7163 19.8652 84.1134 19.2462 83.6627 18.4694C83.2242 17.6927 83.005 16.8127 83.005 15.8296C83.005 14.8587 83.2242 13.9848 83.6627 13.2081C84.1012 12.4313 84.7041 11.8244 85.4715 11.3875C86.2388 10.9384 87.1158 10.7139 88.1024 10.7139C88.7723 10.7139 89.3996 10.8353 89.9842 11.078C90.5689 11.3086 91.0743 11.6303 91.5007 12.0429C91.9391 12.4556 92.2619 12.935 92.469 13.4811L90.6602 14.3186C90.4532 13.8088 90.1182 13.4023 89.6553 13.0988C89.2047 12.7833 88.687 12.6255 88.1024 12.6255C87.5421 12.6255 87.0366 12.7651 86.5859 13.0442C86.1475 13.3112 85.8003 13.6935 85.5445 14.1912C85.2888 14.6766 85.1609 15.2289 85.1609 15.8478C85.1609 16.4668 85.2888 17.0251 85.5445 17.5227C85.8003 18.0082 86.1475 18.3905 86.5859 18.6697C87.0366 18.9488 87.5421 19.0884 88.1024 19.0884C88.6992 19.0884 89.2169 18.9367 89.6553 18.6333C90.106 18.3177 90.441 17.899 90.6602 17.3771L92.469 18.2328C92.2741 18.7547 91.9574 19.228 91.5189 19.6528C91.0926 20.0654 90.5871 20.3931 90.0025 20.6359C89.4178 20.8786 88.7845 21 88.1024 21Z" fill="#E17153"/>
<path d="M93.3449 20.7815V7H95.4095V12.8622L95.0806 12.6073C95.3242 11.9883 95.714 11.521 96.2499 11.2055C96.7859 10.8778 97.407 10.7139 98.1135 10.7139C98.8443 10.7139 99.4899 10.8717 100.05 11.1873C100.61 11.5028 101.049 11.9397 101.366 12.498C101.682 13.0563 101.841 13.6935 101.841 14.4096V20.7815H99.7944V14.974C99.7944 14.4764 99.6969 14.0576 99.502 13.7178C99.3193 13.3658 99.0635 13.0988 98.7347 12.9168C98.4058 12.7226 98.0282 12.6255 97.6019 12.6255C97.1878 12.6255 96.8102 12.7226 96.4692 12.9168C96.1403 13.0988 95.8784 13.3658 95.6835 13.7178C95.5008 14.0698 95.4095 14.4885 95.4095 14.974V20.7815H93.3449Z" fill="#E17153"/>
<path d="M105.868 21C105.198 21 104.607 20.8847 104.096 20.6541C103.596 20.4113 103.207 20.0837 102.927 19.671C102.646 19.2462 102.506 18.7486 102.506 18.1781C102.506 17.6441 102.622 17.1647 102.853 16.7399C103.097 16.3151 103.469 15.9571 103.968 15.6658C104.467 15.3745 105.095 15.1682 105.85 15.0468L109.285 14.4824V16.1027L106.252 16.6307C105.704 16.7278 105.302 16.9038 105.046 17.1586C104.79 17.4014 104.662 17.7169 104.662 18.1053C104.662 18.4816 104.802 18.7911 105.082 19.0338C105.375 19.2644 105.746 19.3797 106.197 19.3797C106.757 19.3797 107.244 19.2583 107.659 19.0156C108.085 18.7729 108.414 18.4512 108.645 18.0507C108.877 17.6381 108.992 17.1829 108.992 16.6853V14.1547C108.992 13.6693 108.81 13.2748 108.444 12.9714C108.091 12.6558 107.616 12.498 107.019 12.498C106.471 12.498 105.99 12.6437 105.576 12.935C105.174 13.2141 104.875 13.5782 104.681 14.0273L102.963 13.1716C103.146 12.6862 103.444 12.2614 103.858 11.8973C104.272 11.521 104.754 11.2297 105.302 11.0234C105.862 10.8171 106.453 10.7139 107.074 10.7139C107.853 10.7139 108.542 10.8596 109.138 11.1508C109.747 11.4421 110.216 11.8487 110.545 12.3706C110.886 12.8804 111.057 13.4751 111.057 14.1547V20.7815H109.084V18.9974L109.504 19.052C109.272 19.4525 108.974 19.7984 108.609 20.0897C108.255 20.381 107.847 20.6055 107.385 20.7633C106.934 20.9211 106.428 21 105.868 21Z" fill="#E17153"/>
<path d="M112.329 20.7815V10.9324H114.302V12.9168L114.119 12.6255C114.339 11.9822 114.692 11.521 115.179 11.2419C115.666 10.9506 116.251 10.8049 116.933 10.8049H117.536V12.6801H116.677C115.995 12.6801 115.441 12.8925 115.015 13.3173C114.601 13.7299 114.393 14.3247 114.393 15.1014V20.7815H112.329Z" fill="#E17153"/>
<path d="M122.26 20.8908C121.225 20.8908 120.421 20.5995 119.848 20.0169C119.276 19.4343 118.99 18.6151 118.99 17.5592V12.7893H117.254V10.9324H117.528C117.991 10.9324 118.35 10.7989 118.606 10.5319C118.862 10.2648 118.99 9.90073 118.99 9.43953V8.6749H121.054V10.9324H123.301V12.7893H121.054V17.4681C121.054 17.808 121.109 18.0993 121.219 18.342C121.328 18.5726 121.505 18.7547 121.749 18.8882C121.992 19.0095 122.309 19.0702 122.699 19.0702C122.796 19.0702 122.906 19.0641 123.027 19.052C123.149 19.0399 123.265 19.0277 123.375 19.0156V20.7815C123.204 20.8058 123.015 20.8301 122.808 20.8543C122.601 20.8786 122.418 20.8908 122.26 20.8908Z" fill="#E17153"/>
</svg>
