<svg width="334" height="66" viewBox="0 0 334 66" fill="none" xmlns="http://www.w3.org/2000/svg">
<path d="M83.61 42C83.3313 42 83.1033 41.9113 82.926 41.734C82.7487 41.5567 82.66 41.3287 82.66 41.05V16.35C82.66 16.0713 82.7487 15.8433 82.926 15.666C83.1033 15.4887 83.3313 15.4 83.61 15.4H88.512C88.7907 15.4 89.0187 15.4887 89.196 15.666C89.3733 15.8433 89.462 16.0713 89.462 16.35V25.508H98.848V16.35C98.848 16.0713 98.9367 15.8433 99.114 15.666C99.2913 15.4887 99.5193 15.4 99.798 15.4H104.7C104.979 15.4 105.207 15.4887 105.384 15.666C105.561 15.8433 105.65 16.0713 105.65 16.35V41.05C105.65 41.3287 105.561 41.5567 105.384 41.734C105.207 41.9113 104.979 42 104.7 42H99.798C99.5193 42 99.2913 41.9113 99.114 41.734C98.9367 41.5567 98.848 41.3287 98.848 41.05V31.588H89.462V41.05C89.462 41.3287 89.3733 41.5567 89.196 41.734C89.0187 41.9113 88.7907 42 88.512 42H83.61ZM119.676 42.38C116.687 42.38 114.306 41.5693 112.532 39.948C110.759 38.3267 109.834 35.92 109.758 32.728C109.758 32.5507 109.758 32.3227 109.758 32.044C109.758 31.7653 109.758 31.55 109.758 31.398C109.834 29.3967 110.278 27.6867 111.088 26.268C111.924 24.824 113.064 23.7347 114.508 23C115.978 22.24 117.688 21.86 119.638 21.86C121.868 21.86 123.704 22.3033 125.148 23.19C126.618 24.0767 127.72 25.28 128.454 26.8C129.189 28.32 129.556 30.0553 129.556 32.006V32.918C129.556 33.1967 129.455 33.4247 129.252 33.602C129.075 33.7793 128.86 33.868 128.606 33.868H116.446C116.446 33.8933 116.446 33.9313 116.446 33.982C116.446 34.0327 116.446 34.0833 116.446 34.134C116.472 34.8687 116.598 35.54 116.826 36.148C117.054 36.756 117.409 37.2373 117.89 37.592C118.372 37.9467 118.954 38.124 119.638 38.124C120.145 38.124 120.563 38.048 120.892 37.896C121.247 37.7187 121.538 37.5287 121.766 37.326C121.994 37.098 122.172 36.908 122.298 36.756C122.526 36.5027 122.704 36.3507 122.83 36.3C122.982 36.224 123.21 36.186 123.514 36.186H128.226C128.48 36.186 128.682 36.262 128.834 36.414C129.012 36.5407 129.088 36.7307 129.062 36.984C129.037 37.4147 128.822 37.934 128.416 38.542C128.011 39.15 127.416 39.758 126.63 40.366C125.87 40.9487 124.908 41.43 123.742 41.81C122.577 42.19 121.222 42.38 119.676 42.38ZM116.446 30.106H122.868V30.03C122.868 29.2193 122.742 28.51 122.488 27.902C122.26 27.294 121.893 26.8253 121.386 26.496C120.905 26.1667 120.322 26.002 119.638 26.002C118.954 26.002 118.372 26.1667 117.89 26.496C117.434 26.8253 117.08 27.294 116.826 27.902C116.573 28.51 116.446 29.2193 116.446 30.03V30.106ZM134.069 42C133.79 42 133.562 41.9113 133.385 41.734C133.208 41.5567 133.119 41.3287 133.119 41.05V15.97C133.119 15.6913 133.208 15.4633 133.385 15.286C133.562 15.1087 133.79 15.02 134.069 15.02H138.553C138.832 15.02 139.06 15.1087 139.237 15.286C139.414 15.4633 139.503 15.6913 139.503 15.97V41.05C139.503 41.3287 139.414 41.5567 139.237 41.734C139.06 41.9113 138.832 42 138.553 42H134.069ZM144.942 49.22C144.663 49.22 144.435 49.1313 144.258 48.954C144.081 48.7767 143.992 48.5487 143.992 48.27V23.19C143.992 22.9113 144.081 22.6833 144.258 22.506C144.435 22.3287 144.663 22.24 144.942 22.24H149.236C149.489 22.24 149.705 22.3287 149.882 22.506C150.085 22.6833 150.186 22.9113 150.186 23.19V24.596C150.769 23.8107 151.541 23.1647 152.504 22.658C153.467 22.126 154.657 21.86 156.076 21.86C157.343 21.86 158.457 22.0627 159.42 22.468C160.383 22.848 161.206 23.418 161.89 24.178C162.574 24.938 163.106 25.8627 163.486 26.952C163.891 28.0413 164.119 29.2953 164.17 30.714C164.195 31.2207 164.208 31.6893 164.208 32.12C164.208 32.5507 164.195 33.0193 164.17 33.526C164.119 34.894 163.904 36.1227 163.524 37.212C163.144 38.3013 162.612 39.226 161.928 39.986C161.244 40.746 160.408 41.3413 159.42 41.772C158.457 42.1773 157.343 42.38 156.076 42.38C154.835 42.38 153.745 42.1647 152.808 41.734C151.896 41.278 151.136 40.6447 150.528 39.834V48.27C150.528 48.5487 150.439 48.7767 150.262 48.954C150.085 49.1313 149.857 49.22 149.578 49.22H144.942ZM154.024 37.288C154.885 37.288 155.557 37.1107 156.038 36.756C156.519 36.4013 156.861 35.92 157.064 35.312C157.292 34.704 157.431 34.0327 157.482 33.298C157.533 32.5127 157.533 31.7273 157.482 30.942C157.431 30.2073 157.292 29.536 157.064 28.928C156.861 28.32 156.519 27.8387 156.038 27.484C155.557 27.1293 154.885 26.952 154.024 26.952C153.188 26.952 152.517 27.142 152.01 27.522C151.503 27.8767 151.136 28.3453 150.908 28.928C150.68 29.5107 150.553 30.144 150.528 30.828C150.503 31.3093 150.49 31.778 150.49 32.234C150.49 32.69 150.503 33.1713 150.528 33.678C150.553 34.3113 150.693 34.9067 150.946 35.464C151.199 35.996 151.579 36.4393 152.086 36.794C152.593 37.1233 153.239 37.288 154.024 37.288ZM168.915 42C168.636 42 168.408 41.9113 168.231 41.734C168.053 41.5567 167.965 41.3287 167.965 41.05V23.19C167.965 22.9113 168.053 22.6833 168.231 22.506C168.408 22.3287 168.636 22.24 168.915 22.24H173.399C173.652 22.24 173.867 22.3287 174.045 22.506C174.247 22.6833 174.349 22.9113 174.349 23.19V41.05C174.349 41.3287 174.247 41.5567 174.045 41.734C173.867 41.9113 173.652 42 173.399 42H168.915ZM168.877 19.39C168.598 19.39 168.37 19.3013 168.193 19.124C168.015 18.9467 167.927 18.7187 167.927 18.44V15.058C167.927 14.7793 168.015 14.5513 168.193 14.374C168.37 14.1713 168.598 14.07 168.877 14.07H173.399C173.677 14.07 173.905 14.1713 174.083 14.374C174.285 14.5513 174.387 14.7793 174.387 15.058V18.44C174.387 18.7187 174.285 18.9467 174.083 19.124C173.905 19.3013 173.677 19.39 173.399 19.39H168.877ZM180.938 42C180.659 42 180.431 41.9113 180.254 41.734C180.077 41.5567 179.988 41.3287 179.988 41.05V23.19C179.988 22.9113 180.077 22.6833 180.254 22.506C180.431 22.3287 180.659 22.24 180.938 22.24H185.308C185.587 22.24 185.815 22.3287 185.992 22.506C186.169 22.6833 186.258 22.9113 186.258 23.19V24.634C186.917 23.8487 187.778 23.19 188.842 22.658C189.906 22.126 191.16 21.86 192.604 21.86C194.073 21.86 195.365 22.1893 196.48 22.848C197.62 23.5067 198.507 24.482 199.14 25.774C199.799 27.0407 200.128 28.5987 200.128 30.448V41.05C200.128 41.3287 200.027 41.5567 199.824 41.734C199.647 41.9113 199.431 42 199.178 42H194.39C194.137 42 193.909 41.9113 193.706 41.734C193.529 41.5567 193.44 41.3287 193.44 41.05V30.676C193.44 29.4853 193.149 28.5733 192.566 27.94C192.009 27.2813 191.173 26.952 190.058 26.952C189.019 26.952 188.183 27.2813 187.55 27.94C186.942 28.5733 186.638 29.4853 186.638 30.676V41.05C186.638 41.3287 186.537 41.5567 186.334 41.734C186.157 41.9113 185.941 42 185.688 42H180.938ZM214.059 50.36C212.108 50.36 210.487 50.1067 209.195 49.6C207.928 49.0933 206.915 48.4853 206.155 47.776C205.42 47.0667 204.888 46.3573 204.559 45.648C204.23 44.964 204.052 44.4193 204.027 44.014C204.002 43.7353 204.09 43.5073 204.293 43.33C204.496 43.1527 204.736 43.064 205.015 43.064H209.841C210.069 43.064 210.259 43.1147 210.411 43.216C210.588 43.3427 210.728 43.5453 210.829 43.824C210.956 44.1027 211.12 44.394 211.323 44.698C211.551 45.002 211.855 45.2427 212.235 45.42C212.64 45.6227 213.185 45.724 213.869 45.724C214.629 45.724 215.262 45.5973 215.769 45.344C216.276 45.116 216.656 44.7233 216.909 44.166C217.162 43.634 217.289 42.912 217.289 42V39.454C216.706 40.0873 215.959 40.6067 215.047 41.012C214.135 41.392 213.033 41.582 211.741 41.582C210.449 41.582 209.309 41.392 208.321 41.012C207.333 40.632 206.51 40.062 205.851 39.302C205.192 38.542 204.673 37.6173 204.293 36.528C203.938 35.4387 203.723 34.1847 203.647 32.766C203.622 32.1073 203.622 31.4487 203.647 30.79C203.723 29.422 203.938 28.1933 204.293 27.104C204.648 26.0147 205.154 25.0773 205.813 24.292C206.497 23.5067 207.333 22.9113 208.321 22.506C209.309 22.0753 210.449 21.86 211.741 21.86C213.109 21.86 214.274 22.126 215.237 22.658C216.225 23.1647 217.036 23.8107 217.669 24.596V23.19C217.669 22.9367 217.758 22.7213 217.935 22.544C218.112 22.3413 218.34 22.24 218.619 22.24H222.989C223.268 22.24 223.496 22.3413 223.673 22.544C223.876 22.7213 223.977 22.9367 223.977 23.19V41.468C223.977 43.3933 223.584 45.0147 222.799 46.332C222.014 47.6493 220.886 48.65 219.417 49.334C217.948 50.018 216.162 50.36 214.059 50.36ZM213.793 36.642C214.604 36.642 215.262 36.4647 215.769 36.11C216.276 35.7553 216.643 35.2993 216.871 34.742C217.124 34.1847 217.264 33.5893 217.289 32.956C217.314 32.6773 217.327 32.2847 217.327 31.778C217.327 31.2713 217.314 30.8913 217.289 30.638C217.264 29.9793 217.124 29.3713 216.871 28.814C216.643 28.2567 216.276 27.8133 215.769 27.484C215.262 27.1293 214.604 26.952 213.793 26.952C212.957 26.952 212.286 27.1293 211.779 27.484C211.298 27.8387 210.943 28.32 210.715 28.928C210.512 29.536 210.386 30.2073 210.335 30.942C210.31 31.4993 210.31 32.0693 210.335 32.652C210.386 33.3867 210.512 34.058 210.715 34.666C210.943 35.274 211.298 35.7553 211.779 36.11C212.286 36.4647 212.957 36.642 213.793 36.642ZM237.911 42C237.632 42 237.404 41.9113 237.227 41.734C237.049 41.5567 236.961 41.3287 236.961 41.05V16.35C236.961 16.0713 237.049 15.8433 237.227 15.666C237.404 15.4887 237.632 15.4 237.911 15.4H242.813C243.091 15.4 243.319 15.4887 243.497 15.666C243.674 15.8433 243.763 16.0713 243.763 16.35V25.508H253.149V16.35C253.149 16.0713 253.237 15.8433 253.415 15.666C253.592 15.4887 253.82 15.4 254.099 15.4H259.001C259.279 15.4 259.507 15.4887 259.685 15.666C259.862 15.8433 259.951 16.0713 259.951 16.35V41.05C259.951 41.3287 259.862 41.5567 259.685 41.734C259.507 41.9113 259.279 42 259.001 42H254.099C253.82 42 253.592 41.9113 253.415 41.734C253.237 41.5567 253.149 41.3287 253.149 41.05V31.588H243.763V41.05C243.763 41.3287 243.674 41.5567 243.497 41.734C243.319 41.9113 243.091 42 242.813 42H237.911ZM270.785 42.38C269.417 42.38 268.189 42.1267 267.099 41.62C266.035 41.088 265.187 40.3787 264.553 39.492C263.92 38.6053 263.603 37.6047 263.603 36.49C263.603 34.6913 264.338 33.2727 265.807 32.234C267.277 31.17 269.227 30.448 271.659 30.068L276.409 29.346V28.814C276.409 27.902 276.219 27.2053 275.839 26.724C275.459 26.2427 274.763 26.002 273.749 26.002C273.04 26.002 272.457 26.1413 272.001 26.42C271.571 26.6987 271.229 27.0787 270.975 27.56C270.747 27.8893 270.431 28.054 270.025 28.054H265.769C265.491 28.054 265.275 27.978 265.123 27.826C264.971 27.6487 264.908 27.446 264.933 27.218C264.933 26.762 265.098 26.2427 265.427 25.66C265.782 25.052 266.314 24.4567 267.023 23.874C267.733 23.2913 268.645 22.81 269.759 22.43C270.874 22.05 272.217 21.86 273.787 21.86C275.434 21.86 276.84 22.05 278.005 22.43C279.171 22.81 280.108 23.342 280.817 24.026C281.552 24.71 282.097 25.5207 282.451 26.458C282.806 27.37 282.983 28.3833 282.983 29.498V41.05C282.983 41.3287 282.882 41.5567 282.679 41.734C282.502 41.9113 282.287 42 282.033 42H277.625C277.347 42 277.119 41.9113 276.941 41.734C276.764 41.5567 276.675 41.3287 276.675 41.05V39.72C276.346 40.2013 275.903 40.6447 275.345 41.05C274.788 41.4553 274.129 41.772 273.369 42C272.635 42.2533 271.773 42.38 270.785 42.38ZM272.571 38.048C273.306 38.048 273.965 37.896 274.547 37.592C275.155 37.2627 275.624 36.7687 275.953 36.11C276.308 35.426 276.485 34.5773 276.485 33.564V33.032L273.255 33.602C272.065 33.8047 271.191 34.1213 270.633 34.552C270.101 34.9573 269.835 35.4387 269.835 35.996C269.835 36.4267 269.962 36.794 270.215 37.098C270.469 37.402 270.798 37.6427 271.203 37.82C271.609 37.972 272.065 38.048 272.571 38.048ZM288.221 42C287.943 42 287.715 41.9113 287.537 41.734C287.36 41.5567 287.271 41.3287 287.271 41.05V23.19C287.271 22.9113 287.36 22.6833 287.537 22.506C287.715 22.3287 287.943 22.24 288.221 22.24H292.591C292.87 22.24 293.098 22.3287 293.275 22.506C293.453 22.6833 293.541 22.9113 293.541 23.19V24.634C294.2 23.8487 295.061 23.19 296.125 22.658C297.189 22.126 298.443 21.86 299.887 21.86C301.357 21.86 302.649 22.1893 303.763 22.848C304.903 23.5067 305.79 24.482 306.423 25.774C307.082 27.0407 307.411 28.5987 307.411 30.448V41.05C307.411 41.3287 307.31 41.5567 307.107 41.734C306.93 41.9113 306.715 42 306.461 42H301.673C301.42 42 301.192 41.9113 300.989 41.734C300.812 41.5567 300.723 41.3287 300.723 41.05V30.676C300.723 29.4853 300.432 28.5733 299.849 27.94C299.292 27.2813 298.456 26.952 297.341 26.952C296.303 26.952 295.467 27.2813 294.833 27.94C294.225 28.5733 293.921 29.4853 293.921 30.676V41.05C293.921 41.3287 293.82 41.5567 293.617 41.734C293.44 41.9113 293.225 42 292.971 42H288.221ZM319.024 42.38C317.808 42.38 316.706 42.19 315.718 41.81C314.755 41.4047 313.919 40.822 313.21 40.062C312.526 39.2767 311.994 38.3393 311.614 37.25C311.234 36.1353 311.019 34.8687 310.968 33.45C310.943 32.9433 310.93 32.5 310.93 32.12C310.93 31.7147 310.943 31.2713 310.968 30.79C311.019 29.422 311.234 28.1933 311.614 27.104C311.994 26.0147 312.526 25.0773 313.21 24.292C313.894 23.5067 314.73 22.9113 315.718 22.506C316.706 22.0753 317.808 21.86 319.024 21.86C320.291 21.86 321.38 22.0753 322.292 22.506C323.204 22.9113 323.977 23.4433 324.61 24.102V15.97C324.61 15.6913 324.699 15.4633 324.876 15.286C325.053 15.1087 325.281 15.02 325.56 15.02H330.196C330.449 15.02 330.665 15.1087 330.842 15.286C331.045 15.4633 331.146 15.6913 331.146 15.97V41.05C331.146 41.3287 331.045 41.5567 330.842 41.734C330.665 41.9113 330.449 42 330.196 42H325.902C325.623 42 325.395 41.9113 325.218 41.734C325.041 41.5567 324.952 41.3287 324.952 41.05V39.834C324.344 40.5687 323.559 41.1767 322.596 41.658C321.633 42.1393 320.443 42.38 319.024 42.38ZM321.076 37.288C321.937 37.288 322.609 37.1107 323.09 36.756C323.597 36.376 323.964 35.8947 324.192 35.312C324.445 34.7293 324.585 34.096 324.61 33.412C324.635 32.9053 324.648 32.424 324.648 31.968C324.648 31.512 324.635 31.0433 324.61 30.562C324.585 29.9287 324.445 29.346 324.192 28.814C323.939 28.2567 323.559 27.8133 323.052 27.484C322.545 27.1293 321.887 26.952 321.076 26.952C320.24 26.952 319.569 27.1293 319.062 27.484C318.581 27.8387 318.239 28.32 318.036 28.928C317.833 29.536 317.707 30.2073 317.656 30.942C317.58 31.7273 317.58 32.5127 317.656 33.298C317.707 34.0327 317.833 34.704 318.036 35.312C318.239 35.92 318.581 36.4013 319.062 36.756C319.569 37.1107 320.24 37.288 321.076 37.288Z" fill="#3A3A3A"/>
<path d="M49.5012 29C53.0881 29 56 25.8653 56 22.0013C56 18.1347 53.0881 15 49.5012 15C45.9071 15 43 18.1347 43 22.0013C43 25.8653 45.9071 29 49.5012 29Z" fill="#E17153"/>
<path d="M49.8061 0.0149693C48.7187 -0.0240744 47.6222 0.0126726 46.5325 0.132101C61.5961 3.54499 61.3448 18.9811 59.25 24.8078C59.2386 24.8423 59.2248 24.879 59.2134 24.9112C58.2997 27.4169 56.7988 30.1247 54.455 31.544C51.2979 33.4503 47.163 32.3754 44.3509 30.3428C37.059 25.0742 34.7083 13.8342 24.3987 12.7088C20.723 12.3092 18 13.9605 18 13.9605C18 13.9605 27.8573 17.6283 35.019 33.1127C40.328 44.5961 39.2155 57.5817 37.8723 65C45.0225 61.1691 52.2436 57.0006 57.9022 51.1486C63.7526 45.0991 68.1912 37.3455 69.603 28.9694C71.8463 15.6784 64.4927 0.55699 49.8061 0.0149693Z" fill="#E17153"/>
<path d="M23.9105 49.9432C21.5791 48.8098 19.6874 47.5005 17 45C20.3273 51.0628 27.2239 55.6082 35 58C35 55.6776 34.4672 54.5441 32.3079 53.3181C29.6856 51.8262 26.6166 51.2641 23.9105 49.9432Z" fill="#058789"/>
<path d="M19 43C22.2787 46.7881 27.3696 48.6499 33 50C33 47.0869 29.7467 46.0915 27.7408 45.8679C23.3139 45.3713 19 43 19 43Z" fill="#058789"/>
<path d="M23.6731 54.4132C19.4916 51.4347 16.7753 48.7178 15.4558 43.6743C15.0281 42.0414 14.8916 40.0627 16.086 38.8947C17.0961 37.9042 18.6954 37.9136 20.0558 38.2476C21.4163 38.584 22.7358 39.1914 24.1349 39.2007C25.5317 39.2101 27.6088 38.5747 27.7726 37.145C24.5626 33.5335 20.1855 31.0339 15.5036 30.1368C14.3524 29.9149 13.2331 29.7047 12.1616 29.3963C10.4872 28.9244 8.9334 28.2189 7.56158 26.8827C5.67789 25.0466 4.49034 22.5984 3.75325 20.0731C2.8114 16.8493 2.55205 13.3709 2.95245 10C0.311182 15.3052 -0.605641 21.741 0.395356 27.8054C1.8013 36.325 6.22161 44.2116 12.0479 50.3648C18.4338 57.1113 26.8239 61.6573 34.8365 66C36.0331 59.2605 30.4958 59.2605 23.6731 54.4132Z" fill="#00715D"/>
<path d="M56.8141 8.46306C54.6495 4.5127 51.029 1.94193 46.0559 0.82031L44.3108 0.427742C40.6948 1.16128 37.3076 2.86615 34.9074 5.7577C31.3901 1.5202 25.7486 -0.180178 20.3874 0.0149838C13.1375 0.279687 7.71127 4.14256 4.38242 9.56898L4.1738 11.2828C3.78574 14.4637 4.05043 17.7075 4.93872 20.6663C5.73056 23.3066 6.92841 25.4018 8.50311 26.8958C9.51253 27.8537 10.6902 28.511 12.2671 29C11.8409 27.7236 11.4865 26.427 11.2532 25.1012C10.5713 21.2877 10.9145 17.1646 12.9535 13.8693C15.2057 10.2285 19.5081 7.95608 23.788 8.14676C28.0635 8.33744 32.9895 10.9194 34.9074 14.7464C36.8253 10.9194 41.7513 8.33744 46.0268 8.14676C50.3067 7.95608 54.6091 10.2285 56.8613 13.8693C58.0726 15.8276 58.6827 18.0776 58.8397 20.3792C59.257 16.9156 58.9519 12.3686 56.8141 8.46306Z" fill="#00715D"/>
</svg>
