<svg width="80" height="80" viewBox="0 0 80 80" fill="none" xmlns="http://www.w3.org/2000/svg">
<path d="M60 21.4688C59.4656 20.5451 58.7546 19.7358 57.9074 19.087C57.0602 18.4382 56.0935 17.9627 55.0625 17.6875C54.034 17.4058 52.9596 17.3326 51.9024 17.4721C50.8451 17.6116 49.8265 17.9611 48.9063 18.5C47.9682 19.0243 47.1489 19.7372 46.5 20.5938L42.125 13.0313C41.5937 12.1057 40.8853 11.2939 40.0401 10.6423C39.195 9.99058 38.2298 9.51177 37.1996 9.23318C36.1694 8.95459 35.0944 8.88168 34.0361 9.01862C32.9777 9.15556 31.9566 9.49966 31.0313 10.0313C29.9956 10.6382 29.1009 11.4585 28.4063 12.4375C27.4312 11.5171 26.2372 10.861 24.9375 10.5313C23.909 10.2495 22.8346 10.1763 21.7774 10.3158C20.7201 10.4554 19.7015 10.8049 18.7813 11.3438C17.8577 11.8781 17.0483 12.5892 16.3995 13.4364C15.7508 14.2836 15.2752 15.2503 15 16.2813C14.6836 17.4211 14.6302 18.6178 14.8438 19.7813C14.0681 19.9714 13.3217 20.2657 12.625 20.6563C10.759 21.7406 9.39879 23.5202 8.84234 25.6054C8.28589 27.6907 8.57857 29.9114 9.65628 31.7813L10.2813 32.8438C9.20905 32.9682 8.17567 33.3197 7.25003 33.875C5.38614 34.9533 4.02652 36.7274 3.46986 38.8075C2.91321 40.8876 3.20505 43.1037 4.28128 44.9688L15.8438 65C19.164 70.7383 24.6249 74.925 31.0284 76.6416C37.4319 78.3582 44.2548 77.4643 50 74.1563C55.0404 71.271 58.9021 66.701 60.9063 61.25C64.9692 57.3859 67.6132 52.2667 68.4125 46.7169C69.2118 41.1672 68.1198 35.5099 65.3125 30.6563L60 21.4688ZM33.5313 14.375C33.8879 14.1684 34.282 14.0344 34.6907 13.9807C35.0993 13.927 35.5146 13.9547 35.9125 14.0621C36.3105 14.1696 36.6832 14.3547 37.0093 14.6069C37.3354 14.859 37.6084 15.1732 37.8125 15.5313L44.4688 27.0625C43.8698 27.2479 43.2933 27.4994 42.75 27.8125C41.8194 28.3473 41.002 29.0585 40.3438 29.9063L35.9688 22.3438C35.2075 21.0121 34.0793 19.9273 32.7188 19.2188L32.375 18.6563C31.9661 17.934 31.8582 17.0797 32.0746 16.2784C32.291 15.4771 32.8143 14.7932 33.5313 14.375ZM21.2813 15.6563C22.0036 15.2473 22.8579 15.1394 23.6592 15.3558C24.4605 15.5722 25.1443 16.0956 25.5625 16.8125L26.5938 18.625C25.9969 18.8161 25.4211 19.0674 24.875 19.375C23.8265 19.9643 22.9281 20.7878 22.25 21.7813C21.7165 21.2848 21.1171 20.8642 20.4688 20.5313L20.1563 19.9375C19.9484 19.5827 19.8125 19.1904 19.7565 18.7829C19.7006 18.3755 19.7255 17.9611 19.8301 17.5634C19.9346 17.1656 20.1166 16.7924 20.3656 16.4652C20.6146 16.1379 20.9258 15.863 21.2813 15.6563ZM47.5 69.8125C42.908 72.4628 37.4516 73.1813 32.3301 71.8101C27.2085 70.4389 22.841 67.0902 20.1875 62.5L8.62503 42.4688C8.31386 41.9345 8.16816 41.32 8.20636 40.7029C8.24457 40.0858 8.46497 39.4939 8.83967 39.0021C9.21437 38.5103 9.72653 38.1407 10.3113 37.9401C10.8962 37.7395 11.5273 37.7168 12.125 37.875C12.9264 38.0997 13.6097 38.6261 14.0313 39.3438L21.5313 52.3438C21.7546 52.7184 22.0699 53.0298 22.4472 53.2486C22.8245 53.4673 23.2514 53.5861 23.6875 53.5938C24.1256 53.5922 24.5556 53.4756 24.9344 53.2555C25.3133 53.0355 25.6276 52.7197 25.846 52.34C26.0644 51.9602 26.1791 51.5297 26.1787 51.0916C26.1783 50.6535 26.0628 50.2232 25.8438 49.8438L13.9688 29.2813C13.5544 28.5602 13.4434 27.7041 13.6602 26.9012C13.8771 26.0983 14.404 25.4144 15.125 25C15.8461 24.5856 16.7022 24.4746 17.5051 24.6915C18.308 24.9083 18.9919 25.4352 19.4063 26.1563L31.2813 46.7188C31.4304 47.0296 31.6421 47.3063 31.9033 47.5313C32.1644 47.7564 32.4693 47.925 32.7987 48.0266C33.1282 48.1282 33.4751 48.1605 33.8176 48.1216C34.1602 48.0827 34.491 47.9734 34.7892 47.8004C35.0875 47.6275 35.3468 47.3948 35.5508 47.1169C35.7548 46.839 35.8991 46.5219 35.9746 46.1855C36.0502 45.8491 36.0554 45.5008 35.9898 45.1623C35.9243 44.8239 35.7894 44.5026 35.5938 44.2188L26.2188 27.9688C25.8099 27.2465 25.7019 26.3922 25.9183 25.5909C26.1347 24.7896 26.6581 24.1057 27.375 23.6875C28.0926 23.2801 28.9421 23.173 29.7384 23.3896C30.5346 23.6062 31.2128 24.129 31.625 24.8438L44.75 47.5938C44.9761 47.9729 45.2963 48.2872 45.6795 48.5062C46.0628 48.7252 46.4961 48.8415 46.9375 48.8438C47.376 48.8329 47.8052 48.7149 48.1875 48.5C48.7579 48.1671 49.1733 47.622 49.3431 46.9838C49.5129 46.3456 49.4232 45.6661 49.0938 45.0938L44.0938 36.4063C43.6834 35.6972 43.571 34.8543 43.7813 34.0625C43.8813 33.6606 44.0634 33.2837 44.3161 32.9557C44.5689 32.6276 44.8869 32.3554 45.25 32.1563C45.5977 31.9446 45.9856 31.8076 46.3891 31.7538C46.7925 31.7 47.2028 31.7306 47.5938 31.8438C47.9916 31.9435 48.3653 32.1222 48.6928 32.3691C49.0202 32.616 49.2947 32.9262 49.5 33.2813L54.8125 42.5C56.129 44.7727 56.9841 47.2828 57.3291 49.8864C57.674 52.4901 57.5019 55.1363 56.8226 57.6733C56.1434 60.2104 54.9703 62.5886 53.3706 64.6716C51.7708 66.7546 49.7759 68.5016 47.5 69.8125ZM62.375 50.125C62.0506 46.5562 60.9522 43.101 59.1563 40L53.8438 30.7813C53.0729 29.457 51.9472 28.3746 50.5938 27.6563L50.25 27.0938C49.8378 26.3739 49.7256 25.5207 49.9375 24.7188C50.1622 23.9173 50.6886 23.2341 51.4063 22.8125C51.7606 22.6066 52.1522 22.4731 52.5585 22.4198C52.9648 22.3666 53.3776 22.3945 53.773 22.5021C54.1684 22.6096 54.5385 22.7947 54.8618 23.0465C55.1851 23.2983 55.4551 23.6118 55.6563 23.9688L60.9688 33.1563C62.4353 35.7077 63.3215 38.551 63.5646 41.4838C63.8076 44.4166 63.4015 47.367 62.375 50.125ZM51.5625 7.71876L52.8438 2.87501C52.9279 2.55697 53.0739 2.25861 53.2733 1.99697C53.4727 1.73533 53.7217 1.51553 54.0061 1.35012C54.2905 1.18472 54.6047 1.07695 54.9307 1.03296C55.2567 0.988974 55.5882 1.00963 55.9063 1.09376C56.2243 1.17789 56.5227 1.32384 56.7843 1.52327C57.046 1.72271 57.2658 1.97172 57.4312 2.2561C57.5966 2.54048 57.7043 2.85466 57.7483 3.18069C57.7923 3.50672 57.7717 3.83822 57.6875 4.15626L56.375 9.00001C56.2361 9.53114 55.924 10.0008 55.4882 10.3347C55.0524 10.6686 54.5178 10.8477 53.9688 10.8438L53.3125 10.7813C52.6752 10.6058 52.1333 10.1852 51.8054 9.61125C51.4774 9.03733 51.3901 8.35689 51.5625 7.71876ZM59.7813 10.5938L62.6563 6.50001C63.0404 5.95673 63.6231 5.58655 64.2781 5.46958C64.9331 5.35261 65.6078 5.49826 66.1563 5.87501C66.4262 6.06496 66.6558 6.30646 66.8319 6.58559C67.008 6.86472 67.127 7.17595 67.1822 7.50133C67.2374 7.82671 67.2277 8.1598 67.1535 8.48139C67.0793 8.80297 66.9422 9.10669 66.75 9.37501L63.875 13.4688C63.688 13.7376 63.4493 13.9666 63.1729 14.1423C62.8965 14.318 62.5879 14.4369 62.265 14.4922C61.9422 14.5475 61.6116 14.5379 61.2925 14.4642C60.9734 14.3904 60.6721 14.2539 60.4063 14.0625C59.8651 13.6841 59.4956 13.1069 59.3785 12.457C59.2614 11.8071 59.4062 11.1373 59.7813 10.5938ZM73.5 17.3438L69.4063 20.2188C68.9785 20.4983 68.4798 20.6501 67.9688 20.6563C67.4413 20.6521 66.9286 20.4811 66.5041 20.1679C66.0796 19.8546 65.7651 19.4152 65.6056 18.9123C65.4461 18.4095 65.4497 17.8691 65.616 17.3684C65.7823 16.8677 66.1026 16.4325 66.5313 16.125L70.625 13.25C70.8934 13.0579 71.1971 12.9207 71.5187 12.8466C71.8402 12.7724 72.1733 12.7626 72.4987 12.8178C72.8241 12.873 73.1353 12.9921 73.4145 13.1682C73.6936 13.3443 73.9351 13.5739 74.125 13.8438C74.5018 14.3922 74.6474 15.0669 74.5305 15.722C74.4135 16.377 74.0433 16.9596 73.5 17.3438Z" fill="#FEFFFF"/>
</svg>
