<svg width="76" height="51" viewBox="0 0 76 51" fill="none" xmlns="http://www.w3.org/2000/svg">
<path d="M35.875 35.3437C39.2292 33.1155 41.7769 29.8667 43.1412 26.078C44.5054 22.2893 44.6137 18.162 43.4499 14.307C42.2862 10.452 39.9123 7.07407 36.6795 4.67311C33.4467 2.27215 29.5268 0.975739 25.5 0.975739C21.4732 0.975739 17.5533 2.27215 14.3205 4.67311C11.0877 7.07407 8.71382 10.452 7.55007 14.307C6.38632 18.162 6.49458 22.2893 7.85882 26.078C9.22306 29.8667 11.7708 33.1155 15.125 35.3437C9.40304 37.4479 4.46275 41.254 0.968751 46.25C0.741021 46.5138 0.570981 46.8224 0.469547 47.1559C0.368114 47.4893 0.337528 47.8403 0.379754 48.1863C0.42198 48.5323 0.536083 48.8656 0.714741 49.1649C0.893398 49.4641 1.13266 49.7228 1.41717 49.9241C1.70168 50.1254 2.02514 50.2651 2.3668 50.334C2.70846 50.403 3.06075 50.3997 3.40108 50.3245C3.74141 50.2492 4.06224 50.1036 4.34297 49.8971C4.62371 49.6905 4.85815 49.4275 5.03125 49.125C7.34147 45.843 10.407 43.1646 13.9694 41.3158C17.5317 39.467 21.4864 38.5019 25.5 38.5019C29.5136 38.5019 33.4683 39.467 37.0306 41.3158C40.593 43.1646 43.6585 45.843 45.9688 49.125C46.1418 49.4275 46.3763 49.6905 46.657 49.8971C46.9378 50.1036 47.2586 50.2492 47.5989 50.3245C47.9392 50.3997 48.2915 50.403 48.6332 50.334C48.9749 50.2651 49.2983 50.1254 49.5828 49.9241C49.8673 49.7228 50.1066 49.4641 50.2853 49.1649C50.4639 48.8656 50.578 48.5323 50.6202 48.1863C50.6625 47.8403 50.6319 47.4893 50.5305 47.1559C50.429 46.8224 50.259 46.5138 50.0312 46.25C46.5373 41.254 41.597 37.4479 35.875 35.3437ZM11.75 19.75C11.75 17.0305 12.5564 14.3721 14.0673 12.1109C15.5782 9.84972 17.7256 8.08735 20.2381 7.04664C22.7506 6.00594 25.5153 5.73364 28.1825 6.26419C30.8497 6.79474 33.2997 8.1043 35.2227 10.0273C37.1457 11.9502 38.4553 14.4003 38.9858 17.0675C39.5163 19.7347 39.244 22.4994 38.2033 25.0119C37.1626 27.5244 35.4003 29.6718 33.1391 31.1827C30.8779 32.6936 28.2195 33.5 25.5 33.5C21.8533 33.5 18.3559 32.0513 15.7773 29.4727C13.1987 26.8941 11.75 23.3967 11.75 19.75ZM74.9063 49.7187C74.6404 49.9101 74.3392 50.0466 74.0201 50.1204C73.7009 50.1941 73.3703 50.2037 73.0475 50.1484C72.7247 50.0932 72.4161 49.9742 72.1397 49.7985C71.8632 49.6228 71.6246 49.3938 71.4375 49.125C69.1256 45.8445 66.0598 43.1672 62.4978 41.3183C58.9359 39.4693 54.982 38.5028 50.9688 38.5C50.3057 38.5 49.6698 38.2366 49.201 37.7678C48.7321 37.2989 48.4688 36.663 48.4688 36C48.4688 35.3369 48.7321 34.7011 49.201 34.2322C49.6698 33.7634 50.3057 33.5 50.9688 33.5C54.6155 33.5 58.1128 32.0513 60.6915 29.4727C63.2701 26.8941 64.7187 23.3967 64.7187 19.75C64.7187 16.1033 63.2701 12.6059 60.6915 10.0273C58.1128 7.44864 54.6155 5.99999 50.9688 5.99999C49.713 6.00834 48.4634 6.17636 47.25 6.49999C46.934 6.59062 46.6032 6.61804 46.2766 6.58068C45.95 6.54332 45.634 6.44192 45.3466 6.28227C45.0593 6.12262 44.8062 5.90787 44.602 5.6503C44.3977 5.39274 44.2462 5.09741 44.1562 4.78124C43.9817 4.14324 44.0639 3.46227 44.3851 2.88406C44.7063 2.30586 45.2411 1.87636 45.875 1.68749C47.5363 1.24019 49.2483 1.00911 50.9688 0.999987C54.9997 0.985478 58.9277 2.27261 62.1684 4.66992C65.4091 7.06723 67.7894 10.4466 68.9551 14.3054C70.1208 18.1642 70.0097 22.2962 68.6383 26.0868C67.267 29.8774 64.7086 33.124 61.3437 35.3437C67.0694 37.4564 72.0174 41.2601 75.5313 46.25C75.9063 46.7935 76.0511 47.4633 75.934 48.1132C75.8169 48.7631 75.4474 49.3403 74.9063 49.7187Z" fill="#FEFFFF"/>
</svg>
