<svg width="152" height="28" viewBox="0 0 152 28" fill="none" xmlns="http://www.w3.org/2000/svg">
<path d="M2.18713 18.3748C2.18713 16.4418 3.75414 14.8748 5.68713 14.8748C7.62013 14.8748 9.18713 16.4418 9.18713 18.3748C9.18713 20.3077 7.62013 21.8748 5.68713 21.8748C3.75414 21.8748 2.18713 20.3077 2.18713 18.3748Z" fill="#E17153"/>
<path d="M10.9371 13.1251C10.9371 11.1921 12.5041 9.62512 14.4371 9.62512C16.3701 9.62512 17.9371 11.1921 17.9371 13.1251V18.3751C17.9371 20.3081 16.3701 21.8751 14.4371 21.8751C12.5041 21.8751 10.9371 20.3081 10.9371 18.3751V13.1251Z" fill="#E17153"/>
<path d="M10.9371 12.2499C10.9371 10.3169 12.5041 8.74988 14.4371 8.74988C16.3701 8.74988 17.9371 10.3169 17.9371 12.2499C17.9371 14.1829 16.3701 15.7499 14.4371 15.7499C12.5041 15.7499 10.9371 14.1829 10.9371 12.2499Z" fill="#E17153"/>
<path d="M19.6871 8.75C19.6871 6.817 21.2541 5.25 23.1871 5.25C25.1201 5.25 26.6871 6.817 26.6871 8.75V18.375C26.6871 20.308 25.1201 21.875 23.1871 21.875C21.2541 21.875 19.6871 20.308 19.6871 18.375V8.75Z" fill="#E17153"/>
<path d="M19.6871 8.75C19.6871 6.817 21.2541 5.25 23.1871 5.25C25.1201 5.25 26.6871 6.817 26.6871 8.75C26.6871 10.683 25.1201 12.25 23.1871 12.25C21.2541 12.25 19.6871 10.683 19.6871 8.75Z" fill="#E17153"/>
<path d="M35.5876 23V6.31202H38.4996L44.7492 14.8016H43.3604L49.4756 6.31202H52.3876V23H49.3188V9.78402L50.506 10.0752L44.1668 18.52H43.8084L37.626 10.0752L38.634 9.78402V23H35.5876ZM57.6309 23.2688C56.7798 23.2688 56.0406 23.1269 55.4134 22.8432C54.7862 22.5595 54.3008 22.1563 53.9574 21.6336C53.6139 21.096 53.4422 20.4763 53.4422 19.7744C53.4422 19.1024 53.5915 18.5051 53.8902 17.9824C54.1888 17.4448 54.6518 16.9968 55.279 16.6384C55.9062 16.28 56.6976 16.0261 57.6533 15.8768L61.6405 15.2272V17.4672L58.2133 18.0496C57.6309 18.1541 57.1979 18.3408 56.9142 18.6096C56.6304 18.8784 56.4886 19.2293 56.4886 19.6624C56.4886 20.0805 56.6454 20.4165 56.959 20.6704C57.2875 20.9093 57.6907 21.0288 58.1685 21.0288C58.7808 21.0288 59.3184 20.9019 59.7813 20.648C60.2592 20.3792 60.6251 20.0133 60.8789 19.5504C61.1477 19.0875 61.2821 18.5797 61.2821 18.0272V14.8912C61.2821 14.3685 61.0731 13.9355 60.6549 13.592C60.2517 13.2336 59.7141 13.0544 59.0421 13.0544C58.4149 13.0544 57.8549 13.2261 57.3622 13.5696C56.8843 13.8981 56.5334 14.3387 56.3094 14.8912L53.9126 13.7264C54.1515 13.0843 54.5248 12.5317 55.0326 12.0688C55.5552 11.5909 56.1675 11.2176 56.8694 10.9488C57.5712 10.68 58.3328 10.5456 59.1541 10.5456C60.1547 10.5456 61.0357 10.7323 61.7973 11.1056C62.5589 11.464 63.1488 11.9717 63.5669 12.6288C64 13.2709 64.2165 14.0251 64.2165 14.8912V23H61.4389V20.9168L62.0661 20.872C61.7525 21.3947 61.3792 21.8352 60.9461 22.1936C60.5131 22.5371 60.0203 22.8059 59.4677 23C58.9152 23.1792 58.3029 23.2688 57.6309 23.2688ZM65.5287 23V10.8144H68.2839V13.5248L68.0599 13.1216C68.3436 12.2107 68.7842 11.576 69.3815 11.2176C69.9938 10.8592 70.7255 10.68 71.5767 10.68H72.2935V13.2784H71.2407C70.4044 13.2784 69.7324 13.5397 69.2247 14.0624C68.717 14.5701 68.4631 15.2869 68.4631 16.2128V23H65.5287ZM72.5068 23V6.04322H75.4412V17.1536L74.3212 16.8176L80.0556 10.8144H83.7068L79.2044 15.72L83.7964 23H80.4364L76.4492 16.6832L78.1964 16.3248L74.5228 20.2672L75.4412 18.4752V23H72.5068ZM89.5954 23.2688C88.341 23.2688 87.2434 22.9851 86.3026 22.4176C85.3618 21.8501 84.63 21.0811 84.1074 20.1104C83.5847 19.1397 83.3234 18.0645 83.3234 16.8848C83.3234 15.6603 83.5847 14.5776 84.1074 13.6368C84.645 12.6811 85.3692 11.9269 86.2802 11.3744C87.206 10.8219 88.2364 10.5456 89.3714 10.5456C90.3271 10.5456 91.1634 10.7024 91.8802 11.016C92.6119 11.3296 93.2316 11.7627 93.7394 12.3152C94.2471 12.8677 94.6354 13.5024 94.9042 14.2192C95.173 14.9211 95.3074 15.6827 95.3074 16.504C95.3074 16.7131 95.2924 16.9296 95.2626 17.1536C95.2476 17.3776 95.2103 17.5717 95.1506 17.736H85.7426V15.496H93.493L92.1042 16.5488C92.2386 15.8619 92.2012 15.2496 91.9922 14.712C91.798 14.1744 91.4695 13.7488 91.0066 13.4352C90.5586 13.1216 90.0135 12.9648 89.3714 12.9648C88.7591 12.9648 88.214 13.1216 87.7362 13.4352C87.2583 13.7339 86.8924 14.1819 86.6386 14.7792C86.3996 15.3616 86.31 16.0709 86.3698 16.9072C86.31 17.6539 86.4071 18.3184 86.661 18.9008C86.9298 19.4683 87.318 19.9088 87.8258 20.2224C88.3484 20.536 88.9458 20.6928 89.6178 20.6928C90.2898 20.6928 90.8572 20.5509 91.3202 20.2672C91.798 19.9835 92.1714 19.6027 92.4402 19.1248L94.8146 20.2896C94.5756 20.872 94.2023 21.3872 93.6946 21.8352C93.1868 22.2832 92.582 22.6341 91.8802 22.888C91.1932 23.1419 90.4316 23.2688 89.5954 23.2688ZM101.687 23.1344C100.313 23.1344 99.2454 22.7611 98.4838 22.0144C97.7371 21.2528 97.3638 20.1851 97.3638 18.8112V13.4352H95.2582V10.8144H95.4822C96.0795 10.8144 96.5424 10.6576 96.871 10.344C97.1995 10.0304 97.3638 9.57495 97.3638 8.97762V8.03682H100.298V10.8144H103.098V13.4352H100.298V18.6544C100.298 19.0576 100.365 19.4011 100.5 19.6848C100.649 19.9685 100.873 20.1851 101.172 20.3344C101.485 20.4837 101.881 20.5584 102.359 20.5584C102.464 20.5584 102.583 20.5509 102.717 20.536C102.867 20.5211 103.009 20.5061 103.143 20.4912V23C102.934 23.0299 102.695 23.0597 102.426 23.0896C102.157 23.1195 101.911 23.1344 101.687 23.1344ZM110.19 23.2688C109.129 23.2688 108.144 23.0747 107.233 22.6864C106.337 22.2981 105.56 21.7605 104.903 21.0736C104.261 20.3717 103.791 19.5579 103.492 18.632L106.023 17.5344C106.426 18.4901 107.009 19.2443 107.77 19.7968C108.532 20.3344 109.391 20.6032 110.346 20.6032C110.884 20.6032 111.347 20.5211 111.735 20.3568C112.138 20.1776 112.445 19.9387 112.654 19.64C112.878 19.3413 112.99 18.9829 112.99 18.5648C112.99 18.072 112.84 17.6688 112.542 17.3552C112.258 17.0267 111.825 16.7728 111.242 16.5936L108.039 15.5632C106.74 15.16 105.762 14.5552 105.105 13.7488C104.448 12.9424 104.119 11.9941 104.119 10.904C104.119 9.94828 104.351 9.10455 104.814 8.37282C105.292 7.64108 105.949 7.07362 106.785 6.67042C107.636 6.25229 108.607 6.04322 109.697 6.04322C110.697 6.04322 111.616 6.22242 112.452 6.58082C113.288 6.92429 114.005 7.40962 114.602 8.03682C115.215 8.64908 115.67 9.37335 115.969 10.2096L113.46 11.3296C113.132 10.4933 112.639 9.85122 111.982 9.40322C111.325 8.94028 110.563 8.70882 109.697 8.70882C109.189 8.70882 108.741 8.79842 108.353 8.97762C107.965 9.14188 107.658 9.38082 107.434 9.69442C107.225 9.99308 107.121 10.3515 107.121 10.7696C107.121 11.2325 107.27 11.6432 107.569 12.0016C107.868 12.3451 108.323 12.6139 108.935 12.808L112.004 13.7712C113.333 14.2043 114.326 14.8016 114.983 15.5632C115.655 16.3248 115.991 17.2656 115.991 18.3856C115.991 19.3413 115.745 20.1851 115.252 20.9168C114.759 21.6485 114.08 22.2235 113.214 22.6416C112.348 23.0597 111.34 23.2688 110.19 23.2688ZM120.675 23.2688C119.823 23.2688 119.084 23.1269 118.457 22.8432C117.83 22.5595 117.344 22.1563 117.001 21.6336C116.658 21.096 116.486 20.4763 116.486 19.7744C116.486 19.1024 116.635 18.5051 116.934 17.9824C117.232 17.4448 117.695 16.9968 118.323 16.6384C118.95 16.28 119.741 16.0261 120.697 15.8768L124.684 15.2272V17.4672L121.257 18.0496C120.675 18.1541 120.242 18.3408 119.958 18.6096C119.674 18.8784 119.532 19.2293 119.532 19.6624C119.532 20.0805 119.689 20.4165 120.003 20.6704C120.331 20.9093 120.734 21.0288 121.212 21.0288C121.824 21.0288 122.362 20.9019 122.825 20.648C123.303 20.3792 123.669 20.0133 123.923 19.5504C124.191 19.0875 124.326 18.5797 124.326 18.0272V14.8912C124.326 14.3685 124.117 13.9355 123.699 13.592C123.295 13.2336 122.758 13.0544 122.086 13.0544C121.459 13.0544 120.899 13.2261 120.406 13.5696C119.928 13.8981 119.577 14.3387 119.353 14.8912L116.956 13.7264C117.195 13.0843 117.568 12.5317 118.076 12.0688C118.599 11.5909 119.211 11.2176 119.913 10.9488C120.615 10.68 121.376 10.5456 122.198 10.5456C123.198 10.5456 124.079 10.7323 124.841 11.1056C125.603 11.464 126.192 11.9717 126.611 12.6288C127.044 13.2709 127.26 14.0251 127.26 14.8912V23H124.483V20.9168L125.11 20.872C124.796 21.3947 124.423 21.8352 123.99 22.1936C123.557 22.5371 123.064 22.8059 122.511 23C121.959 23.1792 121.347 23.2688 120.675 23.2688ZM132.027 23L127.234 10.8144H130.437L133.909 20.4016H132.722L136.216 10.8144H139.419L134.626 23H132.027ZM141.12 27.9504C140.791 27.9504 140.47 27.9205 140.156 27.8608C139.843 27.816 139.559 27.7339 139.305 27.6144V25.1504C139.499 25.1952 139.731 25.24 140 25.2848C140.283 25.3296 140.545 25.352 140.784 25.352C141.456 25.352 141.941 25.1952 142.239 24.8816C142.553 24.568 142.829 24.1573 143.068 23.6496L143.875 21.768L143.83 24.232L138.521 10.8144H141.68L145.398 20.7152H144.278L147.974 10.8144H151.155L145.846 24.232C145.532 25.0235 145.151 25.6955 144.703 26.248C144.255 26.8005 143.733 27.2187 143.135 27.5024C142.553 27.8011 141.881 27.9504 141.12 27.9504Z" fill="#E17153"/>
</svg>
