<svg width="176" height="39" viewBox="0 0 176 39" fill="none" xmlns="http://www.w3.org/2000/svg">
<path d="M46.44 25.1714V10.2714H49.16V16.7714H55.5V10.2714H58.24V25.1714H55.5V19.1714H49.16V25.1714H46.44ZM66.048 25.4114C64.928 25.4114 63.948 25.1581 63.108 24.6514C62.268 24.1447 61.6146 23.4581 61.148 22.5914C60.6813 21.7247 60.448 20.7647 60.448 19.7114C60.448 18.6181 60.6813 17.6514 61.148 16.8114C61.628 15.9581 62.2746 15.2847 63.088 14.7914C63.9146 14.2981 64.8346 14.0514 65.848 14.0514C66.7013 14.0514 67.448 14.1914 68.088 14.4714C68.7413 14.7514 69.2946 15.1381 69.748 15.6314C70.2013 16.1247 70.548 16.6914 70.788 17.3314C71.028 17.9581 71.148 18.6381 71.148 19.3714C71.148 19.5581 71.1346 19.7514 71.108 19.9514C71.0946 20.1514 71.0613 20.3247 71.008 20.4714H62.608V18.4714H69.528L68.288 19.4114C68.408 18.7981 68.3746 18.2514 68.188 17.7714C68.0146 17.2914 67.7213 16.9114 67.308 16.6314C66.908 16.3514 66.4213 16.2114 65.848 16.2114C65.3013 16.2114 64.8146 16.3514 64.388 16.6314C63.9613 16.8981 63.6346 17.2981 63.408 17.8314C63.1946 18.3514 63.1146 18.9847 63.168 19.7314C63.1146 20.3981 63.2013 20.9914 63.428 21.5114C63.668 22.0181 64.0146 22.4114 64.468 22.6914C64.9346 22.9714 65.468 23.1114 66.068 23.1114C66.668 23.1114 67.1746 22.9847 67.588 22.7314C68.0146 22.4781 68.348 22.1381 68.588 21.7114L70.708 22.7514C70.4946 23.2714 70.1613 23.7314 69.708 24.1314C69.2546 24.5314 68.7146 24.8447 68.088 25.0714C67.4746 25.2981 66.7946 25.4114 66.048 25.4114ZM73.1341 25.1714V10.0314H75.7541V25.1714H73.1341ZM78.1731 29.1714V14.2914H80.6331V16.4514L80.3931 15.9114C80.7665 15.3247 81.2731 14.8714 81.9131 14.5514C82.5531 14.2181 83.2931 14.0514 84.1331 14.0514C85.1598 14.0514 86.0865 14.3047 86.9131 14.8114C87.7398 15.3181 88.3931 15.9981 88.8731 16.8514C89.3665 17.7047 89.6131 18.6647 89.6131 19.7314C89.6131 20.7847 89.3731 21.7447 88.8931 22.6114C88.4131 23.4781 87.7598 24.1647 86.9331 24.6714C86.1065 25.1647 85.1665 25.4114 84.1131 25.4114C83.3265 25.4114 82.5998 25.2581 81.9331 24.9514C81.2798 24.6314 80.7598 24.1781 80.3731 23.5914L80.7931 23.0714V29.1714H78.1731ZM83.8131 23.0114C84.4131 23.0114 84.9465 22.8714 85.4131 22.5914C85.8798 22.3114 86.2398 21.9247 86.4931 21.4314C86.7598 20.9381 86.8931 20.3714 86.8931 19.7314C86.8931 19.0914 86.7598 18.5314 86.4931 18.0514C86.2398 17.5581 85.8798 17.1714 85.4131 16.8914C84.9465 16.5981 84.4131 16.4514 83.8131 16.4514C83.2398 16.4514 82.7198 16.5914 82.2531 16.8714C81.7998 17.1514 81.4398 17.5447 81.1731 18.0514C80.9198 18.5447 80.7931 19.1047 80.7931 19.7314C80.7931 20.3714 80.9198 20.9381 81.1731 21.4314C81.4398 21.9247 81.7998 22.3114 82.2531 22.5914C82.7198 22.8714 83.2398 23.0114 83.8131 23.0114ZM91.6106 25.1714V14.2914H94.2306V25.1714H91.6106ZM91.6106 13.0714V10.2714H94.2306V13.0714H91.6106ZM96.6497 25.1714V14.2914H99.1097V16.4314L98.9097 16.0514C99.163 15.3981 99.5764 14.9047 100.15 14.5714C100.736 14.2247 101.416 14.0514 102.19 14.0514C102.99 14.0514 103.696 14.2247 104.31 14.5714C104.936 14.9181 105.423 15.4047 105.77 16.0314C106.116 16.6447 106.29 17.3581 106.29 18.1714V25.1714H103.67V18.7914C103.67 18.3114 103.576 17.8981 103.39 17.5514C103.203 17.2047 102.943 16.9381 102.61 16.7514C102.29 16.5514 101.91 16.4514 101.47 16.4514C101.043 16.4514 100.663 16.5514 100.33 16.7514C99.9964 16.9381 99.7364 17.2047 99.5497 17.5514C99.363 17.8981 99.2697 18.3114 99.2697 18.7914V25.1714H96.6497ZM113.785 29.5714C112.972 29.5714 112.218 29.4381 111.525 29.1714C110.832 28.9047 110.232 28.5314 109.725 28.0514C109.232 27.5847 108.872 27.0314 108.645 26.3914L111.085 25.4714C111.245 25.9781 111.558 26.3847 112.025 26.6914C112.505 27.0114 113.092 27.1714 113.785 27.1714C114.318 27.1714 114.785 27.0714 115.185 26.8714C115.598 26.6714 115.918 26.3781 116.145 25.9914C116.372 25.6181 116.485 25.1647 116.485 24.6314V22.1514L116.985 22.7514C116.612 23.4047 116.112 23.8981 115.485 24.2314C114.858 24.5647 114.145 24.7314 113.345 24.7314C112.332 24.7314 111.425 24.4981 110.625 24.0314C109.825 23.5647 109.198 22.9247 108.745 22.1114C108.292 21.2981 108.065 20.3847 108.065 19.3714C108.065 18.3447 108.292 17.4314 108.745 16.6314C109.198 15.8314 109.818 15.2047 110.605 14.7514C111.392 14.2847 112.285 14.0514 113.285 14.0514C114.098 14.0514 114.812 14.2247 115.425 14.5714C116.052 14.9047 116.572 15.3914 116.985 16.0314L116.625 16.6914V14.2914H119.105V24.6314C119.105 25.5781 118.872 26.4247 118.405 27.1714C117.952 27.9181 117.325 28.5047 116.525 28.9314C115.738 29.3581 114.825 29.5714 113.785 29.5714ZM113.665 22.3114C114.225 22.3114 114.712 22.1914 115.125 21.9514C115.552 21.6981 115.885 21.3514 116.125 20.9114C116.365 20.4714 116.485 19.9647 116.485 19.3914C116.485 18.8314 116.358 18.3314 116.105 17.8914C115.865 17.4381 115.532 17.0847 115.105 16.8314C114.692 16.5781 114.212 16.4514 113.665 16.4514C113.118 16.4514 112.625 16.5781 112.185 16.8314C111.745 17.0847 111.398 17.4381 111.145 17.8914C110.905 18.3314 110.785 18.8314 110.785 19.3914C110.785 19.9514 110.905 20.4514 111.145 20.8914C111.398 21.3314 111.738 21.6781 112.165 21.9314C112.605 22.1847 113.105 22.3114 113.665 22.3114ZM125.327 25.1714V10.2714H128.047V16.7714H134.387V10.2714H137.127V25.1714H134.387V19.1714H128.047V25.1714H125.327ZM143.075 25.4114C142.315 25.4114 141.655 25.2847 141.095 25.0314C140.535 24.7781 140.101 24.4181 139.795 23.9514C139.488 23.4714 139.335 22.9181 139.335 22.2914C139.335 21.6914 139.468 21.1581 139.735 20.6914C140.001 20.2114 140.415 19.8114 140.975 19.4914C141.535 19.1714 142.241 18.9447 143.095 18.8114L146.655 18.2314V20.2314L143.595 20.7514C143.075 20.8447 142.688 21.0114 142.435 21.2514C142.181 21.4914 142.055 21.8047 142.055 22.1914C142.055 22.5647 142.195 22.8647 142.475 23.0914C142.768 23.3047 143.128 23.4114 143.555 23.4114C144.101 23.4114 144.581 23.2981 144.995 23.0714C145.421 22.8314 145.748 22.5047 145.975 22.0914C146.215 21.6781 146.335 21.2247 146.335 20.7314V17.9314C146.335 17.4647 146.148 17.0781 145.775 16.7714C145.415 16.4514 144.935 16.2914 144.335 16.2914C143.775 16.2914 143.275 16.4447 142.835 16.7514C142.408 17.0447 142.095 17.4381 141.895 17.9314L139.755 16.8914C139.968 16.3181 140.301 15.8247 140.755 15.4114C141.221 14.9847 141.768 14.6514 142.395 14.4114C143.021 14.1714 143.701 14.0514 144.435 14.0514C145.328 14.0514 146.115 14.2181 146.795 14.5514C147.475 14.8714 148.001 15.3247 148.375 15.9114C148.761 16.4847 148.955 17.1581 148.955 17.9314V25.1714H146.475V23.3114L147.035 23.2714C146.755 23.7381 146.421 24.1314 146.035 24.4514C145.648 24.7581 145.208 24.9981 144.715 25.1714C144.221 25.3314 143.675 25.4114 143.075 25.4114ZM151.376 25.1714V14.2914H153.836V16.4314L153.636 16.0514C153.89 15.3981 154.303 14.9047 154.876 14.5714C155.463 14.2247 156.143 14.0514 156.916 14.0514C157.716 14.0514 158.423 14.2247 159.036 14.5714C159.663 14.9181 160.15 15.4047 160.496 16.0314C160.843 16.6447 161.016 17.3581 161.016 18.1714V25.1714H158.396V18.7914C158.396 18.3114 158.303 17.8981 158.116 17.5514C157.93 17.2047 157.67 16.9381 157.336 16.7514C157.016 16.5514 156.636 16.4514 156.196 16.4514C155.77 16.4514 155.39 16.5514 155.056 16.7514C154.723 16.9381 154.463 17.2047 154.276 17.5514C154.09 17.8981 153.996 18.3114 153.996 18.7914V25.1714H151.376ZM168.292 25.4114C167.238 25.4114 166.298 25.1647 165.472 24.6714C164.645 24.1647 163.992 23.4781 163.512 22.6114C163.032 21.7447 162.792 20.7847 162.792 19.7314C162.792 18.6647 163.032 17.7047 163.512 16.8514C163.992 15.9981 164.645 15.3181 165.472 14.8114C166.312 14.3047 167.245 14.0514 168.272 14.0514C169.098 14.0514 169.832 14.2181 170.472 14.5514C171.125 14.8714 171.638 15.3247 172.012 15.9114L171.612 16.4514V10.0314H174.232V25.1714H171.752V23.0714L172.032 23.5914C171.658 24.1781 171.138 24.6314 170.472 24.9514C169.805 25.2581 169.078 25.4114 168.292 25.4114ZM168.572 23.0114C169.172 23.0114 169.698 22.8714 170.152 22.5914C170.605 22.3114 170.958 21.9247 171.212 21.4314C171.478 20.9381 171.612 20.3714 171.612 19.7314C171.612 19.1047 171.478 18.5447 171.212 18.0514C170.958 17.5447 170.605 17.1514 170.152 16.8714C169.698 16.5914 169.172 16.4514 168.572 16.4514C167.985 16.4514 167.458 16.5981 166.992 16.8914C166.525 17.1714 166.158 17.5581 165.892 18.0514C165.638 18.5314 165.512 19.0914 165.512 19.7314C165.512 20.3714 165.638 20.9381 165.892 21.4314C166.158 21.9247 166.525 22.3114 166.992 22.5914C167.458 22.8714 167.985 23.0114 168.572 23.0114Z" fill="#3A3A3A"/>
<path d="M28.9936 17.157C31.0945 17.157 32.8 15.321 32.8 13.0578C32.8 10.7931 31.0945 8.95703 28.9936 8.95703C26.8885 8.95703 25.1857 10.7931 25.1857 13.0578C25.1857 15.321 26.8885 17.157 28.9936 17.157Z" fill="#E17153"/>
<path d="M29.1722 0.180154C28.5353 0.157286 27.893 0.178809 27.2548 0.24876C36.0777 2.24774 35.9305 11.2889 34.7036 14.7017C34.6969 14.7219 34.6888 14.7434 34.6822 14.7622C34.1469 16.2298 33.2679 17.8158 31.8951 18.6472C30.0459 19.7637 27.6241 19.1341 25.977 17.9436C21.706 14.8577 20.3292 8.27427 14.2907 7.61512C12.1378 7.38105 10.5429 8.34826 10.5429 8.34826C10.5429 8.34826 16.3164 10.4966 20.5111 19.5659C23.6207 26.292 22.9691 33.8978 22.1823 38.2428C26.3703 35.999 30.5998 33.5575 33.9141 30.1299C37.3408 26.5866 39.9406 22.0452 40.7675 17.1392C42.0814 9.35447 37.7743 0.497624 29.1722 0.180154Z" fill="#E17153"/>
<path d="M14.0047 29.4239C12.6392 28.76 11.5312 27.9932 9.95714 26.5286C11.906 30.0796 15.9454 32.7419 20.5 34.1429C20.5 32.7826 20.1879 32.1187 18.9232 31.4006C17.3873 30.5267 15.5897 30.1975 14.0047 29.4239Z" fill="#058789"/>
<path d="M11.1286 25.3572C13.0489 27.5759 16.0307 28.6664 19.3286 29.4572C19.3286 27.7509 17.4231 27.1679 16.2482 27.037C13.6553 26.7461 11.1286 25.3572 11.1286 25.3572Z" fill="#058789"/>
<path d="M13.8657 32.042C11.4165 30.2974 9.82553 28.7062 9.05269 25.7521C8.80218 24.7957 8.72223 23.6367 9.42179 22.9526C10.0134 22.3725 10.9502 22.3779 11.747 22.5736C12.5438 22.7706 13.3167 23.1264 14.1362 23.1319C14.9543 23.1373 16.1709 22.7652 16.2668 21.9278C14.3867 19.8124 11.8229 18.3484 9.08067 17.823C8.40643 17.693 7.75084 17.5699 7.12323 17.3893C6.14252 17.1129 5.23242 16.6996 4.42893 15.917C3.32562 14.8415 2.63006 13.4076 2.19833 11.9285C1.64668 10.0403 1.49477 8.00297 1.72929 6.02856C0.182264 9.13589 -0.354732 12.9055 0.231566 16.4575C1.05505 21.4475 3.64409 26.0668 7.05661 29.6708C10.7969 33.6223 15.7112 36.285 20.4042 38.8286C21.1051 34.8811 17.8618 34.8811 13.8657 32.042Z" fill="#00715D"/>
<path d="M33.2769 5.12832C32.009 2.81454 29.8884 1.30881 26.9756 0.651854L25.9534 0.421921C23.8355 0.851567 21.8516 1.85013 20.4458 3.54375C18.3856 1.06179 15.0813 0.0658536 11.9412 0.180163C7.69481 0.335204 4.5166 2.59774 2.56684 5.77608L2.44465 6.7799C2.21735 8.64301 2.37239 10.5429 2.89267 12.276C3.35646 13.8224 4.05806 15.0496 4.98039 15.9247C5.57162 16.4857 6.26139 16.8707 7.18503 17.1571C6.9354 16.4095 6.72781 15.6501 6.59117 14.8735C6.19176 12.6399 6.39278 10.2249 7.58707 8.29483C8.90618 6.16236 11.4262 4.83138 13.933 4.94306C16.4372 5.05474 19.3224 6.56704 20.4458 8.80856C21.5691 6.56704 24.4543 5.05474 26.9585 4.94306C29.4654 4.83138 31.9853 6.16236 33.3044 8.29483C34.0139 9.44186 34.3713 10.7597 34.4633 12.1078C34.7076 10.0791 34.529 7.41583 33.2769 5.12832Z" fill="#00715D"/>
</svg>
