<svg width="155" height="28" viewBox="0 0 155 28" fill="none" xmlns="http://www.w3.org/2000/svg">
<path fill-rule="evenodd" clip-rule="evenodd" d="M14.768 2.62512H5.93732V7.0004L24.312 25.3751H28.6873V16.5595L14.768 2.62512Z" fill="#E17153"/>
<path d="M28.6873 2.62537L21.6873 2.62537L21.6873 9.62537H28.6873V2.62537Z" fill="#E17153"/>
<path d="M14.6873 16.6255H5.93729L14.6873 25.3755L14.6873 16.6255Z" fill="#E17153"/>
<path d="M38.3073 21.5V7.70032H40.2708L47.8652 17.9251L46.8464 18.1288V7.70032H49.3656V21.5H47.3836L39.9003 11.2012L40.8265 10.9974V21.5H38.3073ZM52.0368 21.5V7.70032H61.2057V9.92309H54.5559V13.461H60.8353V15.6838H54.5559V19.2772H61.2057V21.5H52.0368ZM61.9231 21.5L66.4427 14.5539L61.9601 7.70032H64.8497L68.5173 13.3128H67.1836L70.8326 7.70032H73.7222L69.2582 14.5539L73.7593 21.5H70.8697L67.1836 15.8134H68.5173L64.8126 21.5H61.9231ZM77.7442 21.5V9.92309H74.1692V7.70032H83.8012V9.92309H80.2819V21.5H77.7442ZM85.3385 21.5V7.70032H94.5445V9.92309H87.8576V13.7388H93.7109V15.9616H87.8576V21.5H85.3385ZM96.1919 21.5V7.70032H98.711V19.2772H104.62V21.5H96.1919ZM112.685 21.7223C111.673 21.7223 110.728 21.5432 109.851 21.1851C108.975 20.827 108.209 20.3269 107.555 19.6847C106.9 19.0426 106.388 18.2893 106.017 17.4249C105.659 16.5482 105.48 15.6035 105.48 14.5909C105.48 13.566 105.659 12.6213 106.017 11.7569C106.375 10.8925 106.882 10.1392 107.536 9.49706C108.191 8.85493 108.956 8.36098 109.833 8.01522C110.71 7.6571 111.661 7.47805 112.685 7.47805C113.71 7.47805 114.661 7.6571 115.538 8.01522C116.415 8.37333 117.18 8.87345 117.835 9.51558C118.489 10.1454 118.996 10.8925 119.354 11.7569C119.724 12.6213 119.909 13.566 119.909 14.5909C119.909 15.6035 119.724 16.5482 119.354 17.4249C118.983 18.2893 118.471 19.0426 117.816 19.6847C117.162 20.3269 116.396 20.827 115.52 21.1851C114.655 21.5432 113.71 21.7223 112.685 21.7223ZM112.685 19.4254C113.365 19.4254 113.988 19.3081 114.556 19.0735C115.124 18.8265 115.618 18.4869 116.038 18.0547C116.47 17.6225 116.798 17.11 117.02 16.5173C117.255 15.9246 117.372 15.2824 117.372 14.5909C117.372 13.8994 117.255 13.2634 117.02 12.683C116.798 12.0903 116.47 11.5778 116.038 11.1456C115.618 10.7011 115.124 10.3615 114.556 10.1268C113.988 9.89222 113.365 9.77491 112.685 9.77491C112.019 9.77491 111.401 9.89222 110.833 10.1268C110.265 10.3615 109.765 10.7011 109.333 11.1456C108.913 11.5778 108.586 12.0903 108.351 12.683C108.116 13.2634 107.999 13.8994 107.999 14.5909C107.999 15.2824 108.116 15.9246 108.351 16.5173C108.586 17.11 108.913 17.6225 109.333 18.0547C109.765 18.4869 110.265 18.8265 110.833 19.0735C111.401 19.3081 112.019 19.4254 112.685 19.4254ZM124.362 21.5L120.658 7.70032H123.362L126.27 19.4625H125.566L128.604 7.70032H131.216L134.235 19.4625H133.531L136.439 7.70032H139.144L135.439 21.5H132.55L129.493 10.0528H130.308L127.252 21.5H124.362ZM145.419 21.7223C144.542 21.7223 143.727 21.5617 142.974 21.2407C142.233 20.9196 141.591 20.4751 141.047 19.907C140.516 19.3266 140.127 18.6536 139.88 17.888L141.973 16.9804C142.307 17.7707 142.788 18.3943 143.418 18.8512C144.048 19.2958 144.758 19.518 145.548 19.518C145.993 19.518 146.376 19.4501 146.697 19.3143C147.03 19.1661 147.283 18.9685 147.456 18.7215C147.642 18.4746 147.734 18.1782 147.734 17.8324C147.734 17.4249 147.611 17.0915 147.364 16.8322C147.129 16.5605 146.771 16.3506 146.289 16.2024L143.641 15.3503C142.566 15.0169 141.757 14.5168 141.214 13.85C140.671 13.1831 140.399 12.399 140.399 11.4976C140.399 10.7072 140.59 10.0095 140.973 9.40444C141.368 8.79936 141.912 8.33011 142.603 7.99669C143.307 7.65093 144.11 7.47805 145.011 7.47805C145.839 7.47805 146.598 7.62623 147.29 7.9226C147.981 8.20662 148.574 8.60795 149.068 9.1266C149.574 9.6329 149.951 10.2318 150.198 10.9233L148.123 11.8495C147.851 11.158 147.444 10.627 146.901 10.2565C146.357 9.8737 145.727 9.68229 145.011 9.68229C144.591 9.68229 144.221 9.75638 143.9 9.90457C143.579 10.0404 143.326 10.238 143.14 10.4973C142.968 10.7443 142.881 11.0406 142.881 11.3864C142.881 11.7692 143.005 12.1088 143.252 12.4052C143.499 12.6892 143.875 12.9115 144.381 13.072L146.919 13.8685C148.018 14.2266 148.839 14.7206 149.383 15.3503C149.938 15.9801 150.216 16.7581 150.216 17.6843C150.216 18.4746 150.012 19.1723 149.605 19.7774C149.197 20.3824 148.636 20.8579 147.919 21.2036C147.203 21.5494 146.37 21.7223 145.419 21.7223Z" fill="#E17153"/>
</svg>
