<svg width="145" height="28" viewBox="0 0 145 28" fill="none" xmlns="http://www.w3.org/2000/svg">
<path fill-rule="evenodd" clip-rule="evenodd" d="M5.25003 2.62537V11.3754H7.87503V2.62537H5.25003ZM13.125 2.62537V15.7504H15.75V2.62537H13.125ZM21 11.3754V2.62537H23.625V11.3754H21ZM14.4376 25.3753C8.77722 25.3753 4.01552 21.2923 2.62506 15.7503H5.72836C7.01814 19.53 10.4306 22.2308 14.4376 22.2308C18.4445 22.2308 21.857 19.53 23.1468 15.7503H26.25C24.8596 21.2923 20.0979 25.3753 14.4376 25.3753Z" fill="#E17153"/>
<path d="M36.8026 20.125V10.464H33.2499V7.875H43.4869V10.464H39.9343V20.125H36.8026Z" fill="#E17153"/>
<path d="M47.57 20.125V7.875H56.0054V10.3424H50.5838V12.6707H55.6687V15.1207H50.5838V17.6576H56.0054V20.125H47.57Z" fill="#E17153"/>
<path d="M69.3162 20.125L68.2554 17.5881H63.0022L61.9415 20.125H58.8266L64.366 7.875H66.8243L72.3805 20.125H69.3162ZM63.9956 15.1902H67.262L65.6288 11.2633L63.9956 15.1902Z" fill="#E17153"/>
<path d="M85.4867 7.875H87.8776V20.125H85.1836V13.6959L82.8938 18.092H80.907L78.634 13.8002L78.6172 20.125H75.9232V7.875H78.3646L81.9341 14.8427L85.4867 7.875Z" fill="#E17153"/>
<path d="M95.5463 20.125V10.464H91.9937V7.875H102.231V10.464H98.678V20.125H95.5463Z" fill="#E17153"/>
<path d="M113.81 20.125L112.749 17.5881H107.496L106.435 20.125H103.32L108.86 7.875H111.318L116.874 20.125H113.81ZM108.489 15.1902H111.756L110.122 11.2633L108.489 15.1902Z" fill="#E17153"/>
<path d="M120.383 20.125V7.875H123.481V17.536H128.532V20.125H120.383Z" fill="#E17153"/>
<path d="M144.375 20.125H140.704L135.923 14.5821V20.125H132.825V7.875H135.923V13.1399L140.57 7.875H144.19L138.953 13.6959L144.375 20.125Z" fill="#E17153"/>
</svg>
